<svg xmlns="http://www.w3.org/2000/svg" xmlns:xlink="http://www.w3.org/1999/xlink" viewBox="0 0 109.167 109.167" fill="#fff" fill-rule="evenodd" stroke="#000" stroke-linecap="round" stroke-linejoin="round"><use xlink:href="#A" x="2.083" y="2.083"/><symbol id="A" overflow="visible"><g stroke="none" fill-rule="nonzero"><use xlink:href="#C" fill="#61b2e4"/><use xlink:href="#D"/><use xlink:href="#E"/></g><path d="M48.896 31.902L33.605 40.86c-.81.46-1.217 1.401-.996 2.306l.369 12.563" fill="none" stroke="#fff" stroke-width="4.167" stroke-miterlimit="10"/><path d="M41.569 38.605s2.115-1.138 1.506 1.458l2.721-2.021-.883-2.5-3.344 3.058z" stroke="none" fill-rule="nonzero"/><g fill="none" stroke-width="4.167"><use xlink:href="#C"/><use xlink:href="#D"/><use xlink:href="#E"/><path d="M54.167 70.833c0 5.628-2.277 11.017-6.313 14.939s-9.487 6.046-15.112 5.886c-10.871-.302-19.933-9.365-20.233-20.235-.244-8.821 5-16.45 12.563-19.721m20.954-22.994L29.671 39.333c-.746.482-1.105 1.383-.894 2.246l3.687 15.096" stroke-miterlimit="10"/></g></symbol><defs ><path id="C" d="M102.083 104.167h-100c-1.151 0-2.083-.933-2.083-2.083v-100C0 .933.933 0 2.083 0h100c1.151 0 2.083.933 2.083 2.083v100c0 1.151-.933 2.083-2.083 2.083z"/><path id="D" d="M51.692 52.733l12.267 2.048c1.954.327 4.285 1.071 5.833 2.306 1.229.979 2.317 2.292 2.317 3.85 0 3.264-1.533 23.833-2.317 25-2.325 3.458-5.379 1.392-5.917-.504-.687-2.427.3-21.4.3-21.4l-21.402 1.183s-3.567 0-3.567-3.567-.6-21.402 4.75-30.319 12.483-1.783 8.917 5.35-1.183 16.05-1.183 16.05z"/><path id="E" d="M51.042 16.725c0-3.463 2.788-6.25 6.25-6.25s6.25 2.787 6.25 6.25-2.788 6.25-6.25 6.25-6.25-2.788-6.25-6.25z"/></defs></svg>