<?xml version="1.0" standalone="no"?><svg xmlns:xlink="http://www.w3.org/1999/xlink" xmlns="http://www.w3.org/2000/svg" viewBox="0 0 1000 473.68640707816866" preserveAspectRatio="xMaxYMax slice"><g transform="scale(0.6955747534187499)"><rect x="0" y="0" width="1437.6666666666667" height="681" fill="#323848"/><rect x="30.26666666666667" y="30.26666666666667" width="15.133333333333333" height="15.133333333333333" fill="#323848"/><g transform="translate(30.27,30.27) scale(0.3785) rotate(0)"><path d="M5 0H10L5 5L0 10V5L5 0Z" fill="#199AFC"/><path d="M20 15V20H15L20 15Z" fill="#199AFC"/><path d="M20 5V10L15 15L10 20H5L20 5Z" fill="#199AFC"/><path d="M15 0H20L5 15.0002L0 20.0002V15.0002L15 0Z" fill="#199AFC"/></g><rect x="257.26666666666665" y="30.26666666666667" width="15.133333333333333" height="15.133333333333333" fill="#323848"/><circle cx="268.615" cy="34.055" r="3.785" fill="#199AFC"/><g transform="translate(257.27,37.83) scale(0.3785) rotate(0)"><path fill-rule="evenodd" clip-rule="evenodd" d="M10 20C15.5228 20 20 15.5228 20 10C20 4.47715 15.5228 0 10 0C4.47715 0 0 4.47715 0 10C0 15.5228 4.47715 20 10 20ZM10 17C13.866 17 17 13.866 17 10C17 6.13401 13.866 3 10 3C6.13401 3 3 6.13401 3 10C3 13.866 6.13401 17 10 17Z" fill="#199AFC"/></g><circle cx="268.615" cy="41.614999999999995" r="3.785" fill="#199AFC"/><g transform="translate(332.93,30.27) scale(0.7565000000000001) rotate(0)"><path fill-rule="evenodd" clip-rule="evenodd" d="M10 20C15.5228 20 20 15.5228 20 10C20 4.47715 15.5228 0 10 0C4.47715 0 0 4.47715 0 10C0 15.5228 4.47715 20 10 20ZM10 17C13.866 17 17 13.866 17 10C17 6.13401 13.866 3 10 3C6.13401 3 3 6.13401 3 10C3 13.866 6.13401 17 10 17Z" fill="#199AFC"/></g><rect x="408.6" y="30.26666666666667" width="15.133333333333333" height="15.133333333333333" fill="#323848"/><circle cx="419.95500000000004" cy="34.055" r="3.785" fill="#199AFC"/><g transform="translate(416.17,37.83) scale(0.3785) rotate(0)"><path d="M5 0H10L5 5L0 10V5L5 0Z" fill="#199AFC"/><path d="M20 15V20H15L20 15Z" fill="#199AFC"/><path d="M20 5V10L15 15L10 20H5L20 5Z" fill="#199AFC"/><path d="M15 0H20L5 15.0002L0 20.0002V15.0002L15 0Z" fill="#199AFC"/></g><rect x="786.9333333333334" y="30.26666666666667" width="15.133333333333333" height="15.133333333333333" fill="#323848"/><g transform="translate(786.93,30.27) scale(0.3785) rotate(0)"><path d="M5 0H10L5 5L0 10V5L5 0Z" fill="#199AFC"/><path d="M20 15V20H15L20 15Z" fill="#199AFC"/><path d="M20 5V10L15 15L10 20H5L20 5Z" fill="#199AFC"/><path d="M15 0H20L5 15.0002L0 20.0002V15.0002L15 0Z" fill="#199AFC"/></g><g transform="translate(794.5,37.83) scale(0.3785) rotate(0)"><path fill-rule="evenodd" clip-rule="evenodd" d="M10 20C15.5228 20 20 15.5228 20 10C20 4.47715 15.5228 0 10 0C4.47715 0 0 4.47715 0 10C0 15.5228 4.47715 20 10 20ZM10 17C13.866 17 17 13.866 17 10C17 6.13401 13.866 3 10 3C6.13401 3 3 6.13401 3 10C3 13.866 6.13401 17 10 17Z" fill="#199AFC"/></g><rect x="938.2666666666667" y="30.26666666666667" width="15.133333333333333" height="15.133333333333333" fill="#323848"/><g transform="translate(1013.93,30.27) scale(0.7565000000000001) rotate(0)"><path d="M5 0H10L5 5L0 10V5L5 0Z" fill="#199AFC"/><path d="M20 15V20H15L20 15Z" fill="#199AFC"/><path d="M20 5V10L15 15L10 20H5L20 5Z" fill="#199AFC"/><path d="M15 0H20L5 15.0002L0 20.0002V15.0002L15 0Z" fill="#199AFC"/></g><rect x="1013.9333333333334" y="105.93333333333334" width="15.133333333333333" height="15.133333333333333" fill="#323848"/><circle cx="1017.7149999999999" cy="109.715" r="3.785" fill="#199AFC"/><rect x="1240.9333333333334" y="105.93333333333334" width="15.133333333333333" height="15.133333333333333" fill="#323848"/><g transform="translate(1248.5,113.5) scale(0.3785) rotate(0)"><rect width="2" height="20" fill="#199AFC"/><rect x="4" width="2" height="20" fill="#199AFC"/><rect x="8" width="2" height="20" fill="#199AFC"/><rect x="12" width="2" height="20" fill="#199AFC"/><rect x="16" width="2" height="20" fill="#199AFC"/></g><rect x="1316.6000000000001" y="105.93333333333334" width="15.133333333333333" height="15.133333333333333" fill="#323848"/><g transform="translate(105.93,181.6) scale(0.7565000000000001) rotate(0)"><path fill-rule="evenodd" clip-rule="evenodd" d="M10 20C15.5228 20 20 15.5228 20 10C20 4.47715 15.5228 0 10 0C4.47715 0 0 4.47715 0 10C0 15.5228 4.47715 20 10 20ZM10 17C13.866 17 17 13.866 17 10C17 6.13401 13.866 3 10 3C6.13401 3 3 6.13401 3 10C3 13.866 6.13401 17 10 17Z" fill="#199AFC"/></g><circle cx="264.835" cy="189.165" r="7.565" fill="#199AFC"/><rect x="862.6" y="181.60000000000002" width="15.133333333333333" height="15.133333333333333" fill="#323848"/><circle cx="866.385" cy="192.95499999999998" r="3.785" fill="#199AFC"/><circle cx="873.9549999999999" cy="192.95499999999998" r="3.785" fill="#199AFC"/><g transform="translate(1392.27,181.6) scale(0.7565000000000001) rotate(0)"><rect width="2" height="20" fill="#199AFC"/><rect x="4" width="2" height="20" fill="#199AFC"/><rect x="8" width="2" height="20" fill="#199AFC"/><rect x="12" width="2" height="20" fill="#199AFC"/><rect x="16" width="2" height="20" fill="#199AFC"/></g><g transform="translate(257.27,257.27) scale(0.7565000000000001) rotate(0)"><path d="M5 0H10L5 5L0 10V5L5 0Z" fill="#199AFC"/><path d="M20 15V20H15L20 15Z" fill="#199AFC"/><path d="M20 5V10L15 15L10 20H5L20 5Z" fill="#199AFC"/><path d="M15 0H20L5 15.0002L0 20.0002V15.0002L15 0Z" fill="#199AFC"/></g><rect x="484.26666666666665" y="257.26666666666665" width="15.133333333333333" height="15.133333333333333" fill="#323848"/><g transform="translate(491.83,257.27) scale(0.3785) rotate(0)"><path d="M10 0L20 10L10 20L0 10L10 0Z" fill="#199AFC"/></g><rect x="1240.9333333333334" y="257.26666666666665" width="15.133333333333333" height="15.133333333333333" fill="#323848"/><polygon points="1248.5,257.27 1256.07,257.27 1248.5,264.84" fill="#199AFC"/><g transform="translate(1240.93,264.83) scale(0.3785) rotate(0)"><path d="M10 0L20 10L10 20L0 10L10 0Z" fill="#199AFC"/></g><circle cx="1252.285" cy="268.615" r="3.785" fill="#199AFC"/><g transform="translate(30.27,332.93) scale(0.7565000000000001) rotate(0)"><path d="M5 0H10L5 5L0 10V5L5 0Z" fill="#199AFC"/><path d="M20 15V20H15L20 15Z" fill="#199AFC"/><path d="M20 5V10L15 15L10 20H5L20 5Z" fill="#199AFC"/><path d="M15 0H20L5 15.0002L0 20.0002V15.0002L15 0Z" fill="#199AFC"/></g><rect x="105.93333333333334" y="332.93333333333334" width="15.133333333333333" height="15.133333333333333" fill="#323848"/><g transform="translate(113.5,332.93) scale(0.3785) rotate(0)"><path d="M5 0H10L5 5L0 10V5L5 0Z" fill="#199AFC"/><path d="M20 15V20H15L20 15Z" fill="#199AFC"/><path d="M20 5V10L15 15L10 20H5L20 5Z" fill="#199AFC"/><path d="M15 0H20L5 15.0002L0 20.0002V15.0002L15 0Z" fill="#199AFC"/></g><g transform="translate(105.93,340.5) scale(0.3785) rotate(0)"><path d="M10 0L20 10L10 20L0 10L10 0Z" fill="#199AFC"/></g><rect x="257.26666666666665" y="332.93333333333334" width="15.133333333333333" height="15.133333333333333" fill="#323848"/><g transform="translate(257.27,340.5) scale(0.3785) rotate(0)"><path d="M10 0L20 10L10 20L0 10L10 0Z" fill="#199AFC"/></g><rect x="332.93333333333334" y="332.93333333333334" width="15.133333333333333" height="15.133333333333333" fill="#323848"/><polygon points="332.93,332.93 340.5,340.5 332.93,340.5" fill="#199AFC"/><circle cx="1097.165" cy="340.495" r="7.565" fill="#199AFC"/><rect x="1316.6000000000001" y="332.93333333333334" width="15.133333333333333" height="15.133333333333333" fill="#323848"/><polygon points="1316.6,332.93 1324.1699999999998,332.93 1324.1699999999998,340.5" fill="#199AFC"/><g transform="translate(1316.6,340.5) scale(0.3785) rotate(0)"><path d="M10 0L20 10L10 20L0 10L10 0Z" fill="#199AFC"/></g><g transform="translate(181.6,408.6) scale(0.7565000000000001) rotate(0)"><path fill-rule="evenodd" clip-rule="evenodd" d="M10 20C15.5228 20 20 15.5228 20 10C20 4.47715 15.5228 0 10 0C4.47715 0 0 4.47715 0 10C0 15.5228 4.47715 20 10 20ZM10 17C13.866 17 17 13.866 17 10C17 6.13401 13.866 3 10 3C6.13401 3 3 6.13401 3 10C3 13.866 6.13401 17 10 17Z" fill="#199AFC"/></g><g transform="translate(332.93,408.6) scale(0.7565000000000001) rotate(0)"><path d="M5 0H10L5 5L0 10V5L5 0Z" fill="#199AFC"/><path d="M20 15V20H15L20 15Z" fill="#199AFC"/><path d="M20 5V10L15 15L10 20H5L20 5Z" fill="#199AFC"/><path d="M15 0H20L5 15.0002L0 20.0002V15.0002L15 0Z" fill="#199AFC"/></g><rect x="559.9333333333334" y="408.6" width="15.133333333333333" height="15.133333333333333" fill="#323848"/><g transform="translate(559.93,416.17) scale(0.3785) rotate(0)"><path d="M10 0L20 10L10 20L0 10L10 0Z" fill="#199AFC"/></g><g transform="translate(567.5,416.17) scale(0.3785) rotate(0)"><path d="M5 0H10L5 5L0 10V5L5 0Z" fill="#199AFC"/><path d="M20 15V20H15L20 15Z" fill="#199AFC"/><path d="M20 5V10L15 15L10 20H5L20 5Z" fill="#199AFC"/><path d="M15 0H20L5 15.0002L0 20.0002V15.0002L15 0Z" fill="#199AFC"/></g><g transform="translate(862.6,408.6) scale(0.7565000000000001) rotate(0)"><path fill-rule="evenodd" clip-rule="evenodd" d="M10 20C15.5228 20 20 15.5228 20 10C20 4.47715 15.5228 0 10 0C4.47715 0 0 4.47715 0 10C0 15.5228 4.47715 20 10 20ZM10 17C13.866 17 17 13.866 17 10C17 6.13401 13.866 3 10 3C6.13401 3 3 6.13401 3 10C3 13.866 6.13401 17 10 17Z" fill="#199AFC"/></g><polygon points="938.27,408.6 953.4,423.73 938.27,423.73" fill="#199AFC"/><rect x="1165.2666666666667" y="408.6" width="15.133333333333333" height="15.133333333333333" fill="#323848"/><g transform="translate(862.6,484.27) scale(0.7565000000000001) rotate(0)"><path d="M5 0H10L5 5L0 10V5L5 0Z" fill="#199AFC"/><path d="M20 15V20H15L20 15Z" fill="#199AFC"/><path d="M20 5V10L15 15L10 20H5L20 5Z" fill="#199AFC"/><path d="M15 0H20L5 15.0002L0 20.0002V15.0002L15 0Z" fill="#199AFC"/></g><rect x="1013.9333333333334" y="484.26666666666665" width="15.133333333333333" height="15.133333333333333" fill="#323848"/><g transform="translate(1013.93,484.27) scale(0.3785) rotate(0)"><rect width="2" height="20" fill="#199AFC"/><rect x="4" width="2" height="20" fill="#199AFC"/><rect x="8" width="2" height="20" fill="#199AFC"/><rect x="12" width="2" height="20" fill="#199AFC"/><rect x="16" width="2" height="20" fill="#199AFC"/></g><g transform="translate(1021.5,484.27) scale(0.3785) rotate(0)"><rect width="20" height="2" fill="#199AFC"/><rect y="4" width="20" height="2" fill="#199AFC"/><rect y="8" width="20" height="2" fill="#199AFC"/><rect y="12" width="20" height="2" fill="#199AFC"/><rect y="16" width="20" height="2" fill="#199AFC"/></g><g transform="translate(1013.93,491.83) scale(0.3785) rotate(0)"><path d="M5 0H10L5 5L0 10V5L5 0Z" fill="#199AFC"/><path d="M20 15V20H15L20 15Z" fill="#199AFC"/><path d="M20 5V10L15 15L10 20H5L20 5Z" fill="#199AFC"/><path d="M15 0H20L5 15.0002L0 20.0002V15.0002L15 0Z" fill="#199AFC"/></g><rect x="1089.6000000000001" y="484.26666666666665" width="15.133333333333333" height="15.133333333333333" fill="#323848"/><g transform="translate(1097.17,491.83) scale(0.3785) rotate(0)"><rect width="20" height="2" fill="#199AFC"/><rect y="4" width="20" height="2" fill="#199AFC"/><rect y="8" width="20" height="2" fill="#199AFC"/><rect y="12" width="20" height="2" fill="#199AFC"/><rect y="16" width="20" height="2" fill="#199AFC"/></g><rect x="1165.2666666666667" y="484.26666666666665" width="15.133333333333333" height="15.133333333333333" fill="#323848"/><g transform="translate(1165.27,491.83) scale(0.3785) rotate(0)"><rect width="2" height="20" fill="#199AFC"/><rect x="4" width="2" height="20" fill="#199AFC"/><rect x="8" width="2" height="20" fill="#199AFC"/><rect x="12" width="2" height="20" fill="#199AFC"/><rect x="16" width="2" height="20" fill="#199AFC"/></g><g transform="translate(1316.6,484.27) scale(0.7565000000000001) rotate(0)"><path d="M10 0L20 10L10 20L0 10L10 0Z" fill="#199AFC"/></g><g transform="translate(1392.27,484.27) scale(0.7565000000000001) rotate(0)"><path fill-rule="evenodd" clip-rule="evenodd" d="M10 20C15.5228 20 20 15.5228 20 10C20 4.47715 15.5228 0 10 0C4.47715 0 0 4.47715 0 10C0 15.5228 4.47715 20 10 20ZM10 17C13.866 17 17 13.866 17 10C17 6.13401 13.866 3 10 3C6.13401 3 3 6.13401 3 10C3 13.866 6.13401 17 10 17Z" fill="#199AFC"/></g><polygon points="181.6,559.93 196.73,559.93 196.73,575.06" fill="#199AFC"/><circle cx="264.835" cy="567.495" r="7.565" fill="#199AFC"/><polygon points="484.27,559.93 499.4,559.93 484.27,575.06" fill="#199AFC"/><rect x="938.2666666666667" y="559.9333333333334" width="15.133333333333333" height="15.133333333333333" fill="#323848"/><g transform="translate(1089.6,559.93) scale(0.7565000000000001) rotate(0)"><path fill-rule="evenodd" clip-rule="evenodd" d="M10 20C15.5228 20 20 15.5228 20 10C20 4.47715 15.5228 0 10 0C4.47715 0 0 4.47715 0 10C0 15.5228 4.47715 20 10 20ZM10 17C13.866 17 17 13.866 17 10C17 6.13401 13.866 3 10 3C6.13401 3 3 6.13401 3 10C3 13.866 6.13401 17 10 17Z" fill="#199AFC"/></g><g transform="translate(1165.27,559.93) scale(0.7565000000000001) rotate(0)"><path d="M5 0H10L5 5L0 10V5L5 0Z" fill="#199AFC"/><path d="M20 15V20H15L20 15Z" fill="#199AFC"/><path d="M20 5V10L15 15L10 20H5L20 5Z" fill="#199AFC"/><path d="M15 0H20L5 15.0002L0 20.0002V15.0002L15 0Z" fill="#199AFC"/></g><rect x="1240.9333333333334" y="559.9333333333334" width="15.133333333333333" height="15.133333333333333" fill="#323848"/><g transform="translate(1240.93,559.93) scale(0.3785) rotate(0)"><path d="M10 0L20 10L10 20L0 10L10 0Z" fill="#199AFC"/></g><g transform="translate(1248.5,559.93) scale(0.3785) rotate(0)"><rect width="20" height="2" fill="#199AFC"/><rect y="4" width="20" height="2" fill="#199AFC"/><rect y="8" width="20" height="2" fill="#199AFC"/><rect y="12" width="20" height="2" fill="#199AFC"/><rect y="16" width="20" height="2" fill="#199AFC"/></g><g transform="translate(1248.5,567.5) scale(0.3785) rotate(0)"><path d="M5 0H10L5 5L0 10V5L5 0Z" fill="#199AFC"/><path d="M20 15V20H15L20 15Z" fill="#199AFC"/><path d="M20 5V10L15 15L10 20H5L20 5Z" fill="#199AFC"/><path d="M15 0H20L5 15.0002L0 20.0002V15.0002L15 0Z" fill="#199AFC"/></g><circle cx="1324.165" cy="567.495" r="7.565" fill="#199AFC"/><g transform="translate(181.6,635.6) scale(0.7565000000000001) rotate(0)"><path d="M5 0H10L5 5L0 10V5L5 0Z" fill="#199AFC"/><path d="M20 15V20H15L20 15Z" fill="#199AFC"/><path d="M20 5V10L15 15L10 20H5L20 5Z" fill="#199AFC"/><path d="M15 0H20L5 15.0002L0 20.0002V15.0002L15 0Z" fill="#199AFC"/></g><g transform="translate(257.27,635.6) scale(0.7565000000000001) rotate(0)"><rect width="20" height="2" fill="#199AFC"/><rect y="4" width="20" height="2" fill="#199AFC"/><rect y="8" width="20" height="2" fill="#199AFC"/><rect y="12" width="20" height="2" fill="#199AFC"/><rect y="16" width="20" height="2" fill="#199AFC"/></g><g transform="translate(408.6,635.6) scale(0.7565000000000001) rotate(0)"><rect width="20" height="2" fill="#199AFC"/><rect y="4" width="20" height="2" fill="#199AFC"/><rect y="8" width="20" height="2" fill="#199AFC"/><rect y="12" width="20" height="2" fill="#199AFC"/><rect y="16" width="20" height="2" fill="#199AFC"/></g><g transform="translate(711.27,635.6) scale(0.7565000000000001) rotate(0)"><rect width="2" height="20" fill="#199AFC"/><rect x="4" width="2" height="20" fill="#199AFC"/><rect x="8" width="2" height="20" fill="#199AFC"/><rect x="12" width="2" height="20" fill="#199AFC"/><rect x="16" width="2" height="20" fill="#199AFC"/></g><g transform="translate(786.93,635.6) scale(0.7565000000000001) rotate(0)"><path d="M10 0L20 10L10 20L0 10L10 0Z" fill="#199AFC"/></g><rect x="862.6" y="635.6" width="15.133333333333333" height="15.133333333333333" fill="#323848"/><g transform="translate(870.17,635.6) scale(0.3785) rotate(0)"><rect width="20" height="2" fill="#199AFC"/><rect y="4" width="20" height="2" fill="#199AFC"/><rect y="8" width="20" height="2" fill="#199AFC"/><rect y="12" width="20" height="2" fill="#199AFC"/><rect y="16" width="20" height="2" fill="#199AFC"/></g><g transform="translate(870.17,643.17) scale(0.3785) rotate(0)"><path d="M5 0H10L5 5L0 10V5L5 0Z" fill="#199AFC"/><path d="M20 15V20H15L20 15Z" fill="#199AFC"/><path d="M20 5V10L15 15L10 20H5L20 5Z" fill="#199AFC"/><path d="M15 0H20L5 15.0002L0 20.0002V15.0002L15 0Z" fill="#199AFC"/></g><rect x="1013.9333333333334" y="635.6" width="15.133333333333333" height="15.133333333333333" fill="#323848"/><g transform="translate(1013.93,643.17) scale(0.3785) rotate(0)"><rect width="20" height="2" fill="#199AFC"/><rect y="4" width="20" height="2" fill="#199AFC"/><rect y="8" width="20" height="2" fill="#199AFC"/><rect y="12" width="20" height="2" fill="#199AFC"/><rect y="16" width="20" height="2" fill="#199AFC"/></g><rect x="1165.2666666666667" y="635.6" width="15.133333333333333" height="15.133333333333333" fill="#323848"/><polygon points="1240.93,635.6 1256.0600000000002,650.73 1240.93,650.73" fill="#199AFC"/><g transform="translate(1316.6,635.6) scale(0.7565000000000001) rotate(0)"><path d="M10 0L20 10L10 20L0 10L10 0Z" fill="#199AFC"/></g></g></svg>