<?xml version="1.0" standalone="no"?><svg xmlns:xlink="http://www.w3.org/1999/xlink" xmlns="http://www.w3.org/2000/svg" viewBox="0 0 1920 909.4779015900839" preserveAspectRatio="xMaxYMax slice"><g transform="scale(1.3355035265639998)"><rect x="0" y="0" width="1437.6666666666667" height="681" fill="#ffffff"/><g transform="translate(30.27,30.27) scale(0.7565000000000001) rotate(0)"><path d="M5 0H10L5 5L0 10V5L5 0Z" fill="#e9e9e9"/><path d="M20 15V20H15L20 15Z" fill="#e9e9e9"/><path d="M20 5V10L15 15L10 20H5L20 5Z" fill="#e9e9e9"/><path d="M15 0H20L5 15.0002L0 20.0002V15.0002L15 0Z" fill="#e9e9e9"/></g><rect x="181.60000000000002" y="30.26666666666667" width="15.133333333333333" height="15.133333333333333" fill="#ffffff"/><g transform="translate(189.17,30.27) scale(0.3785) rotate(0)"><path d="M10 0L20 10L10 20L0 10L10 0Z" fill="#f6f6f6"/></g><g transform="translate(257.27,30.27) scale(0.7565000000000001) rotate(0)"><path fill-rule="evenodd" clip-rule="evenodd" d="M10 20C15.5228 20 20 15.5228 20 10C20 4.47715 15.5228 0 10 0C4.47715 0 0 4.47715 0 10C0 15.5228 4.47715 20 10 20ZM10 17C13.866 17 17 13.866 17 10C17 6.13401 13.866 3 10 3C6.13401 3 3 6.13401 3 10C3 13.866 6.13401 17 10 17Z" fill="#d9dbdd"/></g><rect x="408.6" y="30.26666666666667" width="15.133333333333333" height="15.133333333333333" fill="#ffffff"/><g transform="translate(408.6,30.27) scale(0.3785) rotate(0)"><path d="M10 0L20 10L10 20L0 10L10 0Z" fill="#ebebeb"/></g><polygon points="416.17,37.83 423.74,45.4 416.17,45.4" fill="#daddde"/><g transform="translate(484.27,30.27) scale(0.7565000000000001) rotate(0)"><path d="M5 0H10L5 5L0 10V5L5 0Z" fill="#f7f7f7"/><path d="M20 15V20H15L20 15Z" fill="#f7f7f7"/><path d="M20 5V10L15 15L10 20H5L20 5Z" fill="#f7f7f7"/><path d="M15 0H20L5 15.0002L0 20.0002V15.0002L15 0Z" fill="#f7f7f7"/></g><g transform="translate(862.6,30.27) scale(0.7565000000000001) rotate(0)"><rect width="20" height="2" fill="#f9f9f9"/><rect y="4" width="20" height="2" fill="#f9f9f9"/><rect y="8" width="20" height="2" fill="#f9f9f9"/><rect y="12" width="20" height="2" fill="#f9f9f9"/><rect y="16" width="20" height="2" fill="#f9f9f9"/></g><rect x="1013.9333333333334" y="30.26666666666667" width="15.133333333333333" height="15.133333333333333" fill="#ffffff"/><polygon points="1013.93,30.27 1021.5,30.27 1013.93,37.84" fill="#ebeced"/><g transform="translate(1021.5,30.27) scale(0.3785) rotate(0)"><rect width="2" height="20" fill="#dddddd"/><rect x="4" width="2" height="20" fill="#dddddd"/><rect x="8" width="2" height="20" fill="#dddddd"/><rect x="12" width="2" height="20" fill="#dddddd"/><rect x="16" width="2" height="20" fill="#dddddd"/></g><rect x="105.93333333333334" y="105.93333333333334" width="15.133333333333333" height="15.133333333333333" fill="#ffffff"/><g transform="translate(113.5,105.93) scale(0.3785) rotate(0)"><path d="M10 0L20 10L10 20L0 10L10 0Z" fill="#e9eaeb"/></g><polygon points="484.27,105.93 499.4,121.06 484.27,121.06" fill="#dee0e2"/><g transform="translate(559.93,105.93) scale(0.7565000000000001) rotate(0)"><rect width="20" height="2" fill="#e3e3e3"/><rect y="4" width="20" height="2" fill="#e3e3e3"/><rect y="8" width="20" height="2" fill="#e3e3e3"/><rect y="12" width="20" height="2" fill="#e3e3e3"/><rect y="16" width="20" height="2" fill="#e3e3e3"/></g><circle cx="643.1650000000001" cy="113.495" r="7.565" fill="#f2f2f2"/><g transform="translate(711.27,105.93) scale(0.7565000000000001) rotate(0)"><path d="M10 0L20 10L10 20L0 10L10 0Z" fill="#e3e3e3"/></g><g transform="translate(1013.93,105.93) scale(0.7565000000000001) rotate(0)"><path fill-rule="evenodd" clip-rule="evenodd" d="M10 20C15.5228 20 20 15.5228 20 10C20 4.47715 15.5228 0 10 0C4.47715 0 0 4.47715 0 10C0 15.5228 4.47715 20 10 20ZM10 17C13.866 17 17 13.866 17 10C17 6.13401 13.866 3 10 3C6.13401 3 3 6.13401 3 10C3 13.866 6.13401 17 10 17Z" fill="#edeeef"/></g><polygon points="1089.6,105.93 1104.73,105.93 1104.73,121.06" fill="#f0f0f0"/><g transform="translate(105.93,181.6) scale(0.7565000000000001) rotate(0)"><rect width="20" height="2" fill="#e3e3e3"/><rect y="4" width="20" height="2" fill="#e3e3e3"/><rect y="8" width="20" height="2" fill="#e3e3e3"/><rect y="12" width="20" height="2" fill="#e3e3e3"/><rect y="16" width="20" height="2" fill="#e3e3e3"/></g><rect x="181.60000000000002" y="181.60000000000002" width="15.133333333333333" height="15.133333333333333" fill="#ffffff"/><rect x="257.26666666666665" y="181.60000000000002" width="15.133333333333333" height="15.133333333333333" fill="#ffffff"/><g transform="translate(257.27,181.6) scale(0.3785) rotate(0)"><path d="M10 0L20 10L10 20L0 10L10 0Z" fill="#e6e8e9"/></g><rect x="484.26666666666665" y="181.60000000000002" width="15.133333333333333" height="15.133333333333333" fill="#ffffff"/><g transform="translate(491.83,189.17) scale(0.3785) rotate(0)"><path d="M5 0H10L5 5L0 10V5L5 0Z" fill="#ededed"/><path d="M20 15V20H15L20 15Z" fill="#ededed"/><path d="M20 5V10L15 15L10 20H5L20 5Z" fill="#ededed"/><path d="M15 0H20L5 15.0002L0 20.0002V15.0002L15 0Z" fill="#ededed"/></g><rect x="862.6" y="181.60000000000002" width="15.133333333333333" height="15.133333333333333" fill="#ffffff"/><circle cx="1021.495" cy="189.165" r="7.565" fill="#dbdddf"/><rect x="1089.6000000000001" y="181.60000000000002" width="15.133333333333333" height="15.133333333333333" fill="#ffffff"/><rect x="1165.2666666666667" y="181.60000000000002" width="15.133333333333333" height="15.133333333333333" fill="#ffffff"/><g transform="translate(1165.27,181.6) scale(0.3785) rotate(0)"><path d="M5 0H10L5 5L0 10V5L5 0Z" fill="#dfe1e2"/><path d="M20 15V20H15L20 15Z" fill="#dfe1e2"/><path d="M20 5V10L15 15L10 20H5L20 5Z" fill="#dfe1e2"/><path d="M15 0H20L5 15.0002L0 20.0002V15.0002L15 0Z" fill="#dfe1e2"/></g><g transform="translate(1316.6,181.6) scale(0.7565000000000001) rotate(0)"><path d="M5 0H10L5 5L0 10V5L5 0Z" fill="#eff0f0"/><path d="M20 15V20H15L20 15Z" fill="#eff0f0"/><path d="M20 5V10L15 15L10 20H5L20 5Z" fill="#eff0f0"/><path d="M15 0H20L5 15.0002L0 20.0002V15.0002L15 0Z" fill="#eff0f0"/></g><g transform="translate(181.6,257.27) scale(0.7565000000000001) rotate(0)"><path d="M5 0H10L5 5L0 10V5L5 0Z" fill="#f4f4f4"/><path d="M20 15V20H15L20 15Z" fill="#f4f4f4"/><path d="M20 5V10L15 15L10 20H5L20 5Z" fill="#f4f4f4"/><path d="M15 0H20L5 15.0002L0 20.0002V15.0002L15 0Z" fill="#f4f4f4"/></g><rect x="257.26666666666665" y="257.26666666666665" width="15.133333333333333" height="15.133333333333333" fill="#ffffff"/><circle cx="268.615" cy="268.615" r="3.785" fill="#eeeeee"/><rect x="332.93333333333334" y="257.26666666666665" width="15.133333333333333" height="15.133333333333333" fill="#ffffff"/><g transform="translate(340.5,257.27) scale(0.3785) rotate(0)"><rect width="2" height="20" fill="#fcfcfc"/><rect x="4" width="2" height="20" fill="#fcfcfc"/><rect x="8" width="2" height="20" fill="#fcfcfc"/><rect x="12" width="2" height="20" fill="#fcfcfc"/><rect x="16" width="2" height="20" fill="#fcfcfc"/></g><circle cx="336.71500000000003" cy="268.615" r="3.785" fill="#ced1d3"/><g transform="translate(340.5,264.83) scale(0.3785) rotate(0)"><path d="M5 0H10L5 5L0 10V5L5 0Z" fill="#f6f6f6"/><path d="M20 15V20H15L20 15Z" fill="#f6f6f6"/><path d="M20 5V10L15 15L10 20H5L20 5Z" fill="#f6f6f6"/><path d="M15 0H20L5 15.0002L0 20.0002V15.0002L15 0Z" fill="#f6f6f6"/></g><rect x="559.9333333333334" y="257.26666666666665" width="15.133333333333333" height="15.133333333333333" fill="#ffffff"/><g transform="translate(559.93,264.83) scale(0.3785) rotate(0)"><rect width="20" height="2" fill="#f4f4f4"/><rect y="4" width="20" height="2" fill="#f4f4f4"/><rect y="8" width="20" height="2" fill="#f4f4f4"/><rect y="12" width="20" height="2" fill="#f4f4f4"/><rect y="16" width="20" height="2" fill="#f4f4f4"/></g><polygon points="567.5,264.83 575.07,264.83 575.07,272.4" fill="#e5e6e7"/><rect x="862.6" y="257.26666666666665" width="15.133333333333333" height="15.133333333333333" fill="#ffffff"/><g transform="translate(870.17,257.27) scale(0.3785) rotate(0)"><path d="M10 0L20 10L10 20L0 10L10 0Z" fill="#dbdddf"/></g><g transform="translate(870.17,264.83) scale(0.3785) rotate(0)"><rect width="2" height="20" fill="#f6f6f6"/><rect x="4" width="2" height="20" fill="#f6f6f6"/><rect x="8" width="2" height="20" fill="#f6f6f6"/><rect x="12" width="2" height="20" fill="#f6f6f6"/><rect x="16" width="2" height="20" fill="#f6f6f6"/></g><g transform="translate(1165.27,257.27) scale(0.7565000000000001) rotate(0)"><path fill-rule="evenodd" clip-rule="evenodd" d="M10 20C15.5228 20 20 15.5228 20 10C20 4.47715 15.5228 0 10 0C4.47715 0 0 4.47715 0 10C0 15.5228 4.47715 20 10 20ZM10 17C13.866 17 17 13.866 17 10C17 6.13401 13.866 3 10 3C6.13401 3 3 6.13401 3 10C3 13.866 6.13401 17 10 17Z" fill="#fefefe"/></g><rect x="181.60000000000002" y="332.93333333333334" width="15.133333333333333" height="15.133333333333333" fill="#ffffff"/><rect x="257.26666666666665" y="332.93333333333334" width="15.133333333333333" height="15.133333333333333" fill="#ffffff"/><g transform="translate(264.83,332.93) scale(0.3785) rotate(0)"><path d="M10 0L20 10L10 20L0 10L10 0Z" fill="#dbdddf"/></g><g transform="translate(257.27,340.5) scale(0.3785) rotate(0)"><path fill-rule="evenodd" clip-rule="evenodd" d="M10 20C15.5228 20 20 15.5228 20 10C20 4.47715 15.5228 0 10 0C4.47715 0 0 4.47715 0 10C0 15.5228 4.47715 20 10 20ZM10 17C13.866 17 17 13.866 17 10C17 6.13401 13.866 3 10 3C6.13401 3 3 6.13401 3 10C3 13.866 6.13401 17 10 17Z" fill="#e4e4e4"/></g><rect x="862.6" y="332.93333333333334" width="15.133333333333333" height="15.133333333333333" fill="#ffffff"/><rect x="1089.6000000000001" y="332.93333333333334" width="15.133333333333333" height="15.133333333333333" fill="#ffffff"/><g transform="translate(1089.6,332.93) scale(0.3785) rotate(0)"><path d="M10 0L20 10L10 20L0 10L10 0Z" fill="#ececec"/></g><circle cx="1100.9550000000002" cy="344.285" r="3.785" fill="#f2f3f3"/><g transform="translate(1392.27,332.93) scale(0.7565000000000001) rotate(0)"><path d="M5 0H10L5 5L0 10V5L5 0Z" fill="#e1e1e1"/><path d="M20 15V20H15L20 15Z" fill="#e1e1e1"/><path d="M20 5V10L15 15L10 20H5L20 5Z" fill="#e1e1e1"/><path d="M15 0H20L5 15.0002L0 20.0002V15.0002L15 0Z" fill="#e1e1e1"/></g><rect x="484.26666666666665" y="408.6" width="15.133333333333333" height="15.133333333333333" fill="#ffffff"/><g transform="translate(484.27,416.17) scale(0.3785) rotate(0)"><rect width="2" height="20" fill="#fefeff"/><rect x="4" width="2" height="20" fill="#fefeff"/><rect x="8" width="2" height="20" fill="#fefeff"/><rect x="12" width="2" height="20" fill="#fefeff"/><rect x="16" width="2" height="20" fill="#fefeff"/></g><polygon points="575.06,408.6 575.06,423.73 559.93,423.73" fill="#e2e2e2"/><rect x="635.6" y="408.6" width="15.133333333333333" height="15.133333333333333" fill="#ffffff"/><circle cx="639.385" cy="412.38500000000005" r="3.785" fill="#f9fafa"/><g transform="translate(1089.6,408.6) scale(0.7565000000000001) rotate(0)"><path d="M5 0H10L5 5L0 10V5L5 0Z" fill="#d8dadc"/><path d="M20 15V20H15L20 15Z" fill="#d8dadc"/><path d="M20 5V10L15 15L10 20H5L20 5Z" fill="#d8dadc"/><path d="M15 0H20L5 15.0002L0 20.0002V15.0002L15 0Z" fill="#d8dadc"/></g><rect x="1165.2666666666667" y="408.6" width="15.133333333333333" height="15.133333333333333" fill="#ffffff"/><circle cx="1176.615" cy="419.95500000000004" r="3.785" fill="#e2e2e2"/><rect x="1316.6000000000001" y="408.6" width="15.133333333333333" height="15.133333333333333" fill="#ffffff"/><circle cx="1327.9550000000002" cy="412.38500000000005" r="3.785" fill="#e0e0e0"/><circle cx="1327.9550000000002" cy="419.95500000000004" r="3.785" fill="#dddddd"/><rect x="105.93333333333334" y="484.26666666666665" width="15.133333333333333" height="15.133333333333333" fill="#ffffff"/><g transform="translate(257.27,484.27) scale(0.7565000000000001) rotate(0)"><path d="M10 0L20 10L10 20L0 10L10 0Z" fill="#f1f2f3"/></g><g transform="translate(332.93,484.27) scale(0.7565000000000001) rotate(0)"><rect width="2" height="20" fill="#fcfcfc"/><rect x="4" width="2" height="20" fill="#fcfcfc"/><rect x="8" width="2" height="20" fill="#fcfcfc"/><rect x="12" width="2" height="20" fill="#fcfcfc"/><rect x="16" width="2" height="20" fill="#fcfcfc"/></g><g transform="translate(559.93,484.27) scale(0.7565000000000001) rotate(0)"><rect width="20" height="2" fill="#f1f1f1"/><rect y="4" width="20" height="2" fill="#f1f1f1"/><rect y="8" width="20" height="2" fill="#f1f1f1"/><rect y="12" width="20" height="2" fill="#f1f1f1"/><rect y="16" width="20" height="2" fill="#f1f1f1"/></g><rect x="1240.9333333333334" y="484.26666666666665" width="15.133333333333333" height="15.133333333333333" fill="#ffffff"/><g transform="translate(1240.93,484.27) scale(0.3785) rotate(0)"><path d="M10 0L20 10L10 20L0 10L10 0Z" fill="#eaeaea"/></g><circle cx="113.495" cy="567.495" r="7.565" fill="#e0e2e3"/><rect x="786.9333333333334" y="559.9333333333334" width="15.133333333333333" height="15.133333333333333" fill="#ffffff"/><g transform="translate(786.93,567.5) scale(0.3785) rotate(0)"><path d="M10 0L20 10L10 20L0 10L10 0Z" fill="#dddfe0"/></g><circle cx="798.285" cy="571.285" r="3.785" fill="#d9dbdd"/><g transform="translate(938.27,559.93) scale(0.7565000000000001) rotate(0)"><rect width="20" height="2" fill="#fbfbfb"/><rect y="4" width="20" height="2" fill="#fbfbfb"/><rect y="8" width="20" height="2" fill="#fbfbfb"/><rect y="12" width="20" height="2" fill="#fbfbfb"/><rect y="16" width="20" height="2" fill="#fbfbfb"/></g><rect x="257.26666666666665" y="635.6" width="15.133333333333333" height="15.133333333333333" fill="#ffffff"/><g transform="translate(264.83,643.17) scale(0.3785) rotate(0)"><rect width="20" height="2" fill="#f4f4f4"/><rect y="4" width="20" height="2" fill="#f4f4f4"/><rect y="8" width="20" height="2" fill="#f4f4f4"/><rect y="12" width="20" height="2" fill="#f4f4f4"/><rect y="16" width="20" height="2" fill="#f4f4f4"/></g><g transform="translate(332.93,635.6) scale(0.7565000000000001) rotate(0)"><rect width="20" height="2" fill="#dfe1e2"/><rect y="4" width="20" height="2" fill="#dfe1e2"/><rect y="8" width="20" height="2" fill="#dfe1e2"/><rect y="12" width="20" height="2" fill="#dfe1e2"/><rect y="16" width="20" height="2" fill="#dfe1e2"/></g><circle cx="491.835" cy="643.1650000000001" r="7.565" fill="#dfe1e2"/><g transform="translate(635.6,635.6) scale(0.7565000000000001) rotate(0)"><rect width="2" height="20" fill="#d5d8d9"/><rect x="4" width="2" height="20" fill="#d5d8d9"/><rect x="8" width="2" height="20" fill="#d5d8d9"/><rect x="12" width="2" height="20" fill="#d5d8d9"/><rect x="16" width="2" height="20" fill="#d5d8d9"/></g><rect x="1316.6000000000001" y="635.6" width="15.133333333333333" height="15.133333333333333" fill="#ffffff"/><g transform="translate(1316.6,635.6) scale(0.3785) rotate(0)"><path d="M5 0H10L5 5L0 10V5L5 0Z" fill="#dddddd"/><path d="M20 15V20H15L20 15Z" fill="#dddddd"/><path d="M20 5V10L15 15L10 20H5L20 5Z" fill="#dddddd"/><path d="M15 0H20L5 15.0002L0 20.0002V15.0002L15 0Z" fill="#dddddd"/></g></g></svg>