<?xml version="1.0" standalone="no"?><svg xmlns:xlink="http://www.w3.org/1999/xlink" xmlns="http://www.w3.org/2000/svg" viewBox="0 0 1920 909.4640122511486" preserveAspectRatio="xMaxYMax slice"><g transform="scale(1.4701378254211332)"><rect x="0" y="0" width="1306.0000000000002" height="618.6315789473684" fill="#2D3949"/><rect x="6.87" y="75.61" width="54.99" height="54.99" fill="#1b8fe7"/><rect x="694.24" y="75.61" width="54.99" height="54.99" fill="#24659a"/><g transform="translate(831.72,75.61) scale(2.7495000000000003) rotate(0)"><path d="M10 0L20 10L10 20L0 10L10 0Z" fill="#2b435b"/></g><g transform="translate(1175.4,75.61) scale(2.7495000000000003) rotate(0)"><path d="M10 0L20 10L10 20L0 10L10 0Z" fill="#1999fa"/></g><rect x="213.0842105263158" y="144.34736842105264" width="54.98947368421053" height="54.98947368421053" fill="#2D3949"/><g transform="translate(213.08,171.84) scale(1.3744999999999998) rotate(0)"><path fill-rule="evenodd" clip-rule="evenodd" d="M10 20C15.5228 20 20 15.5228 20 10C20 4.47715 15.5228 0 10 0C4.47715 0 0 4.47715 0 10C0 15.5228 4.47715 20 10 20ZM10 17C13.866 17 17 13.866 17 10C17 6.13401 13.866 3 10 3C6.13401 3 3 6.13401 3 10C3 13.866 6.13401 17 10 17Z" fill="#1c8ce3"/></g><circle cx="515.525" cy="171.845" r="27.495" fill="#1c8be1"/><rect x="556.77" y="144.35" width="54.99" height="54.99" fill="#1999fb"/><g transform="translate(694.24,144.35) scale(2.7495000000000003) rotate(0)"><path fill-rule="evenodd" clip-rule="evenodd" d="M10 20C15.5228 20 20 15.5228 20 10C20 4.47715 15.5228 0 10 0C4.47715 0 0 4.47715 0 10C0 15.5228 4.47715 20 10 20ZM10 17C13.866 17 17 13.866 17 10C17 6.13401 13.866 3 10 3C6.13401 3 3 6.13401 3 10C3 13.866 6.13401 17 10 17Z" fill="#1b91eb"/></g><g transform="translate(831.72,144.35) scale(2.7495000000000003) rotate(0)"><path d="M10 0L20 10L10 20L0 10L10 0Z" fill="#2c3e52"/></g><rect x="900.4526315789475" y="144.34736842105264" width="54.98947368421053" height="54.98947368421053" fill="#2D3949"/><g transform="translate(900.45,171.84) scale(1.3744999999999998) rotate(0)"><path fill-rule="evenodd" clip-rule="evenodd" d="M10 20C15.5228 20 20 15.5228 20 10C20 4.47715 15.5228 0 10 0C4.47715 0 0 4.47715 0 10C0 15.5228 4.47715 20 10 20ZM10 17C13.866 17 17 13.866 17 10C17 6.13401 13.866 3 10 3C6.13401 3 3 6.13401 3 10C3 13.866 6.13401 17 10 17Z" fill="#1d87da"/></g><rect x="1106.66" y="144.35" width="54.99" height="54.99" fill="#1c8de4"/><g transform="translate(1244.14,144.35) scale(2.7495000000000003) rotate(0)"><path d="M10 0L20 10L10 20L0 10L10 0Z" fill="#294a69"/></g><g transform="translate(213.08,213.08) scale(2.7495000000000003) rotate(0)"><path fill-rule="evenodd" clip-rule="evenodd" d="M10 20C15.5228 20 20 15.5228 20 10C20 4.47715 15.5228 0 10 0C4.47715 0 0 4.47715 0 10C0 15.5228 4.47715 20 10 20ZM10 17C13.866 17 17 13.866 17 10C17 6.13401 13.866 3 10 3C6.13401 3 3 6.13401 3 10C3 13.866 6.13401 17 10 17Z" fill="#226ca8"/></g><g transform="translate(419.29,213.08) scale(2.7495000000000003) rotate(0)"><path fill-rule="evenodd" clip-rule="evenodd" d="M10 20C15.5228 20 20 15.5228 20 10C20 4.47715 15.5228 0 10 0C4.47715 0 0 4.47715 0 10C0 15.5228 4.47715 20 10 20ZM10 17C13.866 17 17 13.866 17 10C17 6.13401 13.866 3 10 3C6.13401 3 3 6.13401 3 10C3 13.866 6.13401 17 10 17Z" fill="#256192"/></g><circle cx="584.265" cy="240.57500000000002" r="27.495" fill="#1c8de4"/><circle cx="859.215" cy="240.57500000000002" r="27.495" fill="#1c8adf"/><g transform="translate(1175.4,213.08) scale(2.7495000000000003) rotate(0)"><path fill-rule="evenodd" clip-rule="evenodd" d="M10 20C15.5228 20 20 15.5228 20 10C20 4.47715 15.5228 0 10 0C4.47715 0 0 4.47715 0 10C0 15.5228 4.47715 20 10 20ZM10 17C13.866 17 17 13.866 17 10C17 6.13401 13.866 3 10 3C6.13401 3 3 6.13401 3 10C3 13.866 6.13401 17 10 17Z" fill="#2c3c4f"/></g><circle cx="103.105" cy="309.315" r="27.495" fill="#275882"/><g transform="translate(213.08,281.82) scale(2.7495000000000003) rotate(0)"><path d="M10 0L20 10L10 20L0 10L10 0Z" fill="#285074"/></g><g transform="translate(419.29,281.82) scale(2.7495000000000003) rotate(0)"><path d="M10 0L20 10L10 20L0 10L10 0Z" fill="#2c3d51"/></g><g transform="translate(488.03,281.82) scale(2.7495000000000003) rotate(0)"><path d="M10 0L20 10L10 20L0 10L10 0Z" fill="#265984"/></g><circle cx="584.265" cy="309.315" r="27.495" fill="#2172b2"/><g transform="translate(694.24,281.82) scale(2.7495000000000003) rotate(0)"><path fill-rule="evenodd" clip-rule="evenodd" d="M10 20C15.5228 20 20 15.5228 20 10C20 4.47715 15.5228 0 10 0C4.47715 0 0 4.47715 0 10C0 15.5228 4.47715 20 10 20ZM10 17C13.866 17 17 13.866 17 10C17 6.13401 13.866 3 10 3C6.13401 3 3 6.13401 3 10C3 13.866 6.13401 17 10 17Z" fill="#24669c"/></g><g transform="translate(762.98,281.82) scale(2.7495000000000003) rotate(0)"><path d="M10 0L20 10L10 20L0 10L10 0Z" fill="#2a4763"/></g><g transform="translate(831.72,281.82) scale(2.7495000000000003) rotate(0)"><path fill-rule="evenodd" clip-rule="evenodd" d="M10 20C15.5228 20 20 15.5228 20 10C20 4.47715 15.5228 0 10 0C4.47715 0 0 4.47715 0 10C0 15.5228 4.47715 20 10 20ZM10 17C13.866 17 17 13.866 17 10C17 6.13401 13.866 3 10 3C6.13401 3 3 6.13401 3 10C3 13.866 6.13401 17 10 17Z" fill="#2d3a4b"/></g><circle cx="927.945" cy="309.315" r="27.495" fill="#246499"/><g transform="translate(1037.93,281.82) scale(2.7495000000000003) rotate(0)"><path d="M10 0L20 10L10 20L0 10L10 0Z" fill="#294b6b"/></g><rect x="1106.66" y="281.82" width="54.99" height="54.99" fill="#1e7fcb"/><rect x="1175.4" y="281.821052631579" width="54.98947368421053" height="54.98947368421053" fill="#2D3949"/><circle cx="1271.635" cy="309.315" r="27.495" fill="#2b4259"/><rect x="6.873684210526317" y="350.5578947368422" width="54.98947368421053" height="54.98947368421053" fill="#2D3949"/><g transform="translate(6.87,350.56) scale(1.3744999999999998) rotate(0)"><path fill-rule="evenodd" clip-rule="evenodd" d="M10 20C15.5228 20 20 15.5228 20 10C20 4.47715 15.5228 0 10 0C4.47715 0 0 4.47715 0 10C0 15.5228 4.47715 20 10 20ZM10 17C13.866 17 17 13.866 17 10C17 6.13401 13.866 3 10 3C6.13401 3 3 6.13401 3 10C3 13.866 6.13401 17 10 17Z" fill="#1c89dd"/></g><g transform="translate(34.37,350.56) scale(1.3744999999999998) rotate(0)"><path d="M10 0L20 10L10 20L0 10L10 0Z" fill="#2d3b4d"/></g><rect x="6.87" y="378.05" width="27.49" height="27.49" fill="#2368a0"/><rect x="34.37" y="378.05" width="27.49" height="27.49" fill="#24659b"/><g transform="translate(75.61,350.56) scale(2.7495000000000003) rotate(0)"><path fill-rule="evenodd" clip-rule="evenodd" d="M10 20C15.5228 20 20 15.5228 20 10C20 4.47715 15.5228 0 10 0C4.47715 0 0 4.47715 0 10C0 15.5228 4.47715 20 10 20ZM10 17C13.866 17 17 13.866 17 10C17 6.13401 13.866 3 10 3C6.13401 3 3 6.13401 3 10C3 13.866 6.13401 17 10 17Z" fill="#265b87"/></g><rect x="144.34736842105264" y="350.5578947368422" width="54.98947368421053" height="54.98947368421053" fill="#2D3949"/><circle cx="158.095" cy="364.305" r="13.745" fill="#2d3a4b"/><g transform="translate(144.35,378.05) scale(1.3744999999999998) rotate(0)"><path d="M10 0L20 10L10 20L0 10L10 0Z" fill="#1d86d7"/></g><rect x="213.08" y="350.56" width="54.99" height="54.99" fill="#24669c"/><circle cx="378.055" cy="378.055" r="27.495" fill="#2a4762"/><g transform="translate(488.03,350.56) scale(2.7495000000000003) rotate(0)"><path d="M10 0L20 10L10 20L0 10L10 0Z" fill="#1999fa"/></g><g transform="translate(625.51,350.56) scale(2.7495000000000003) rotate(0)"><path d="M10 0L20 10L10 20L0 10L10 0Z" fill="#256092"/></g><g transform="translate(762.98,350.56) scale(2.7495000000000003) rotate(0)"><path d="M10 0L20 10L10 20L0 10L10 0Z" fill="#226fac"/></g><g transform="translate(831.72,350.56) scale(2.7495000000000003) rotate(0)"><path fill-rule="evenodd" clip-rule="evenodd" d="M10 20C15.5228 20 20 15.5228 20 10C20 4.47715 15.5228 0 10 0C4.47715 0 0 4.47715 0 10C0 15.5228 4.47715 20 10 20ZM10 17C13.866 17 17 13.866 17 10C17 6.13401 13.866 3 10 3C6.13401 3 3 6.13401 3 10C3 13.866 6.13401 17 10 17Z" fill="#2c3c4f"/></g><rect x="900.4526315789475" y="350.5578947368422" width="54.98947368421053" height="54.98947368421053" fill="#2D3949"/><circle cx="914.195" cy="364.305" r="13.745" fill="#285276"/><g transform="translate(927.95,350.56) scale(1.3744999999999998) rotate(0)"><path d="M10 0L20 10L10 20L0 10L10 0Z" fill="#2078bd"/></g><circle cx="941.695" cy="391.795" r="13.745" fill="#2369a2"/><rect x="969.19" y="350.56" width="54.99" height="54.99" fill="#1c8be0"/><g transform="translate(1037.93,350.56) scale(2.7495000000000003) rotate(0)"><path d="M10 0L20 10L10 20L0 10L10 0Z" fill="#2078be"/></g><g transform="translate(1106.66,350.56) scale(2.7495000000000003) rotate(0)"><path fill-rule="evenodd" clip-rule="evenodd" d="M10 20C15.5228 20 20 15.5228 20 10C20 4.47715 15.5228 0 10 0C4.47715 0 0 4.47715 0 10C0 15.5228 4.47715 20 10 20ZM10 17C13.866 17 17 13.866 17 10C17 6.13401 13.866 3 10 3C6.13401 3 3 6.13401 3 10C3 13.866 6.13401 17 10 17Z" fill="#1b90ea"/></g><rect x="1175.4" y="350.56" width="54.99" height="54.99" fill="#275983"/><rect x="1244.1368421052632" y="350.5578947368422" width="54.98947368421053" height="54.98947368421053" fill="#2D3949"/><rect x="1271.63" y="350.56" width="27.49" height="27.49" fill="#1d86d7"/><g transform="translate(1244.14,378.05) scale(1.3744999999999998) rotate(0)"><path fill-rule="evenodd" clip-rule="evenodd" d="M10 20C15.5228 20 20 15.5228 20 10C20 4.47715 15.5228 0 10 0C4.47715 0 0 4.47715 0 10C0 15.5228 4.47715 20 10 20ZM10 17C13.866 17 17 13.866 17 10C17 6.13401 13.866 3 10 3C6.13401 3 3 6.13401 3 10C3 13.866 6.13401 17 10 17Z" fill="#23689f"/></g><g transform="translate(1271.63,378.05) scale(1.3744999999999998) rotate(0)"><path d="M10 0L20 10L10 20L0 10L10 0Z" fill="#1a96f4"/></g><rect x="6.87" y="419.29" width="54.99" height="54.99" fill="#1f7fca"/><circle cx="103.105" cy="446.785" r="27.495" fill="#24669b"/><circle cx="171.845" cy="446.785" r="27.495" fill="#2a4967"/><g transform="translate(213.08,419.29) scale(2.7495000000000003) rotate(0)"><path d="M10 0L20 10L10 20L0 10L10 0Z" fill="#2a4560"/></g><rect x="281.821052631579" y="419.2947368421053" width="54.98947368421053" height="54.98947368421053" fill="#2D3949"/><circle cx="295.565" cy="433.035" r="13.745" fill="#1f7bc2"/><g transform="translate(309.32,419.29) scale(1.3744999999999998) rotate(0)"><path fill-rule="evenodd" clip-rule="evenodd" d="M10 20C15.5228 20 20 15.5228 20 10C20 4.47715 15.5228 0 10 0C4.47715 0 0 4.47715 0 10C0 15.5228 4.47715 20 10 20ZM10 17C13.866 17 17 13.866 17 10C17 6.13401 13.866 3 10 3C6.13401 3 3 6.13401 3 10C3 13.866 6.13401 17 10 17Z" fill="#1e81cd"/></g><circle cx="295.565" cy="460.535" r="13.745" fill="#265b88"/><g transform="translate(309.32,446.79) scale(1.3744999999999998) rotate(0)"><path d="M10 0L20 10L10 20L0 10L10 0Z" fill="#265d8b"/></g><rect x="350.56" y="419.29" width="54.99" height="54.99" fill="#24659b"/><g transform="translate(419.29,419.29) scale(2.7495000000000003) rotate(0)"><path fill-rule="evenodd" clip-rule="evenodd" d="M10 20C15.5228 20 20 15.5228 20 10C20 4.47715 15.5228 0 10 0C4.47715 0 0 4.47715 0 10C0 15.5228 4.47715 20 10 20ZM10 17C13.866 17 17 13.866 17 10C17 6.13401 13.866 3 10 3C6.13401 3 3 6.13401 3 10C3 13.866 6.13401 17 10 17Z" fill="#1c8ade"/></g><rect x="488.03" y="419.29" width="54.99" height="54.99" fill="#256090"/><circle cx="584.265" cy="446.785" r="27.495" fill="#27567e"/><g transform="translate(625.51,419.29) scale(2.7495000000000003) rotate(0)"><path fill-rule="evenodd" clip-rule="evenodd" d="M10 20C15.5228 20 20 15.5228 20 10C20 4.47715 15.5228 0 10 0C4.47715 0 0 4.47715 0 10C0 15.5228 4.47715 20 10 20ZM10 17C13.866 17 17 13.866 17 10C17 6.13401 13.866 3 10 3C6.13401 3 3 6.13401 3 10C3 13.866 6.13401 17 10 17Z" fill="#1b92ed"/></g><circle cx="721.735" cy="446.785" r="27.495" fill="#1d89dd"/><rect x="762.98" y="419.29" width="54.99" height="54.99" fill="#1a95f2"/><rect x="831.72" y="419.29" width="54.99" height="54.99" fill="#1e83d1"/><rect x="900.4526315789475" y="419.2947368421053" width="54.98947368421053" height="54.98947368421053" fill="#2D3949"/><g transform="translate(900.45,419.29) scale(1.3744999999999998) rotate(0)"><path fill-rule="evenodd" clip-rule="evenodd" d="M10 20C15.5228 20 20 15.5228 20 10C20 4.47715 15.5228 0 10 0C4.47715 0 0 4.47715 0 10C0 15.5228 4.47715 20 10 20ZM10 17C13.866 17 17 13.866 17 10C17 6.13401 13.866 3 10 3C6.13401 3 3 6.13401 3 10C3 13.866 6.13401 17 10 17Z" fill="#265b88"/></g><rect x="927.95" y="419.29" width="27.49" height="27.49" fill="#1c8de3"/><rect x="900.45" y="446.79" width="27.49" height="27.49" fill="#1d89dc"/><g transform="translate(969.19,419.29) scale(2.7495000000000003) rotate(0)"><path d="M10 0L20 10L10 20L0 10L10 0Z" fill="#1f7fca"/></g><circle cx="1065.425" cy="446.785" r="27.495" fill="#24679e"/><circle cx="1134.155" cy="446.785" r="27.495" fill="#2a4660"/><g transform="translate(1175.4,419.29) scale(2.7495000000000003) rotate(0)"><path fill-rule="evenodd" clip-rule="evenodd" d="M10 20C15.5228 20 20 15.5228 20 10C20 4.47715 15.5228 0 10 0C4.47715 0 0 4.47715 0 10C0 15.5228 4.47715 20 10 20ZM10 17C13.866 17 17 13.866 17 10C17 6.13401 13.866 3 10 3C6.13401 3 3 6.13401 3 10C3 13.866 6.13401 17 10 17Z" fill="#1c8de3"/></g><g transform="translate(6.87,488.03) scale(2.7495000000000003) rotate(0)"><path fill-rule="evenodd" clip-rule="evenodd" d="M10 20C15.5228 20 20 15.5228 20 10C20 4.47715 15.5228 0 10 0C4.47715 0 0 4.47715 0 10C0 15.5228 4.47715 20 10 20ZM10 17C13.866 17 17 13.866 17 10C17 6.13401 13.866 3 10 3C6.13401 3 3 6.13401 3 10C3 13.866 6.13401 17 10 17Z" fill="#2078bd"/></g><g transform="translate(75.61,488.03) scale(2.7495000000000003) rotate(0)"><path d="M10 0L20 10L10 20L0 10L10 0Z" fill="#2d394a"/></g><g transform="translate(144.35,488.03) scale(2.7495000000000003) rotate(0)"><path fill-rule="evenodd" clip-rule="evenodd" d="M10 20C15.5228 20 20 15.5228 20 10C20 4.47715 15.5228 0 10 0C4.47715 0 0 4.47715 0 10C0 15.5228 4.47715 20 10 20ZM10 17C13.866 17 17 13.866 17 10C17 6.13401 13.866 3 10 3C6.13401 3 3 6.13401 3 10C3 13.866 6.13401 17 10 17Z" fill="#2c3d50"/></g><g transform="translate(213.08,488.03) scale(2.7495000000000003) rotate(0)"><path d="M10 0L20 10L10 20L0 10L10 0Z" fill="#1d88db"/></g><g transform="translate(281.82,488.03) scale(2.7495000000000003) rotate(0)"><path fill-rule="evenodd" clip-rule="evenodd" d="M10 20C15.5228 20 20 15.5228 20 10C20 4.47715 15.5228 0 10 0C4.47715 0 0 4.47715 0 10C0 15.5228 4.47715 20 10 20ZM10 17C13.866 17 17 13.866 17 10C17 6.13401 13.866 3 10 3C6.13401 3 3 6.13401 3 10C3 13.866 6.13401 17 10 17Z" fill="#2076ba"/></g><circle cx="378.055" cy="515.525" r="27.495" fill="#255f8f"/><rect x="419.29" y="488.03" width="54.99" height="54.99" fill="#1d87d9"/><rect x="625.51" y="488.03" width="54.99" height="54.99" fill="#265b88"/><rect x="694.24" y="488.03" width="54.99" height="54.99" fill="#1f7bc3"/><g transform="translate(762.98,488.03) scale(2.7495000000000003) rotate(0)"><path d="M10 0L20 10L10 20L0 10L10 0Z" fill="#226da8"/></g><rect x="831.7157894736843" y="488.0315789473685" width="54.98947368421053" height="54.98947368421053" fill="#2D3949"/><g transform="translate(831.72,488.03) scale(1.3744999999999998) rotate(0)"><path d="M10 0L20 10L10 20L0 10L10 0Z" fill="#1f7ec8"/></g><g transform="translate(859.21,488.03) scale(1.3744999999999998) rotate(0)"><path fill-rule="evenodd" clip-rule="evenodd" d="M10 20C15.5228 20 20 15.5228 20 10C20 4.47715 15.5228 0 10 0C4.47715 0 0 4.47715 0 10C0 15.5228 4.47715 20 10 20ZM10 17C13.866 17 17 13.866 17 10C17 6.13401 13.866 3 10 3C6.13401 3 3 6.13401 3 10C3 13.866 6.13401 17 10 17Z" fill="#226eab"/></g><rect x="831.72" y="515.53" width="27.49" height="27.49" fill="#1b90e9"/><g transform="translate(859.21,515.53) scale(1.3744999999999998) rotate(0)"><path d="M10 0L20 10L10 20L0 10L10 0Z" fill="#256192"/></g><rect x="900.45" y="488.03" width="54.99" height="54.99" fill="#1d87d9"/><rect x="1106.663157894737" y="488.0315789473685" width="54.98947368421053" height="54.98947368421053" fill="#2D3949"/><circle cx="1120.405" cy="501.775" r="13.745" fill="#27547b"/><circle cx="1120.405" cy="529.275" r="13.745" fill="#256091"/><g transform="translate(1134.16,515.53) scale(1.3744999999999998) rotate(0)"><path fill-rule="evenodd" clip-rule="evenodd" d="M10 20C15.5228 20 20 15.5228 20 10C20 4.47715 15.5228 0 10 0C4.47715 0 0 4.47715 0 10C0 15.5228 4.47715 20 10 20ZM10 17C13.866 17 17 13.866 17 10C17 6.13401 13.866 3 10 3C6.13401 3 3 6.13401 3 10C3 13.866 6.13401 17 10 17Z" fill="#2c3d50"/></g><rect x="1175.4" y="488.03" width="54.99" height="54.99" fill="#23689f"/><g transform="translate(1244.14,488.03) scale(2.7495000000000003) rotate(0)"><path d="M10 0L20 10L10 20L0 10L10 0Z" fill="#2a4864"/></g><circle cx="34.365" cy="584.265" r="27.495" fill="#294d6e"/><circle cx="103.105" cy="584.265" r="27.495" fill="#285278"/><rect x="144.35" y="556.77" width="54.99" height="54.99" fill="#1e81cd"/><rect x="213.08" y="556.77" width="54.99" height="54.99" fill="#226fad"/><circle cx="309.315" cy="584.265" r="27.495" fill="#294e70"/><rect x="350.5578947368422" y="556.7684210526317" width="54.98947368421053" height="54.98947368421053" fill="#2D3949"/><g transform="translate(350.56,556.77) scale(1.3744999999999998) rotate(0)"><path fill-rule="evenodd" clip-rule="evenodd" d="M10 20C15.5228 20 20 15.5228 20 10C20 4.47715 15.5228 0 10 0C4.47715 0 0 4.47715 0 10C0 15.5228 4.47715 20 10 20ZM10 17C13.866 17 17 13.866 17 10C17 6.13401 13.866 3 10 3C6.13401 3 3 6.13401 3 10C3 13.866 6.13401 17 10 17Z" fill="#27557d"/></g><g transform="translate(378.05,556.77) scale(1.3744999999999998) rotate(0)"><path fill-rule="evenodd" clip-rule="evenodd" d="M10 20C15.5228 20 20 15.5228 20 10C20 4.47715 15.5228 0 10 0C4.47715 0 0 4.47715 0 10C0 15.5228 4.47715 20 10 20ZM10 17C13.866 17 17 13.866 17 10C17 6.13401 13.866 3 10 3C6.13401 3 3 6.13401 3 10C3 13.866 6.13401 17 10 17Z" fill="#1a97f6"/></g><g transform="translate(350.56,584.26) scale(1.3744999999999998) rotate(0)"><path d="M10 0L20 10L10 20L0 10L10 0Z" fill="#265a86"/></g><circle cx="391.795" cy="598.005" r="13.745" fill="#2171b0"/><g transform="translate(419.29,556.77) scale(2.7495000000000003) rotate(0)"><path fill-rule="evenodd" clip-rule="evenodd" d="M10 20C15.5228 20 20 15.5228 20 10C20 4.47715 15.5228 0 10 0C4.47715 0 0 4.47715 0 10C0 15.5228 4.47715 20 10 20ZM10 17C13.866 17 17 13.866 17 10C17 6.13401 13.866 3 10 3C6.13401 3 3 6.13401 3 10C3 13.866 6.13401 17 10 17Z" fill="#27547b"/></g><circle cx="515.525" cy="584.265" r="27.495" fill="#1b90ea"/><circle cx="584.265" cy="584.265" r="27.495" fill="#2a4866"/><g transform="translate(625.51,556.77) scale(2.7495000000000003) rotate(0)"><path d="M10 0L20 10L10 20L0 10L10 0Z" fill="#1f7ec8"/></g><rect x="694.24" y="556.77" width="54.99" height="54.99" fill="#2b445d"/><g transform="translate(762.98,556.77) scale(2.7495000000000003) rotate(0)"><path fill-rule="evenodd" clip-rule="evenodd" d="M10 20C15.5228 20 20 15.5228 20 10C20 4.47715 15.5228 0 10 0C4.47715 0 0 4.47715 0 10C0 15.5228 4.47715 20 10 20ZM10 17C13.866 17 17 13.866 17 10C17 6.13401 13.866 3 10 3C6.13401 3 3 6.13401 3 10C3 13.866 6.13401 17 10 17Z" fill="#27557d"/></g><rect x="831.7157894736843" y="556.7684210526317" width="54.98947368421053" height="54.98947368421053" fill="#2D3949"/><g transform="translate(831.72,556.77) scale(1.3744999999999998) rotate(0)"><path d="M10 0L20 10L10 20L0 10L10 0Z" fill="#1f7ec8"/></g><g transform="translate(859.21,556.77) scale(1.3744999999999998) rotate(0)"><path fill-rule="evenodd" clip-rule="evenodd" d="M10 20C15.5228 20 20 15.5228 20 10C20 4.47715 15.5228 0 10 0C4.47715 0 0 4.47715 0 10C0 15.5228 4.47715 20 10 20ZM10 17C13.866 17 17 13.866 17 10C17 6.13401 13.866 3 10 3C6.13401 3 3 6.13401 3 10C3 13.866 6.13401 17 10 17Z" fill="#2079c0"/></g><rect x="831.72" y="584.26" width="27.49" height="27.49" fill="#226da9"/><circle cx="872.955" cy="598.005" r="13.745" fill="#2b4158"/><rect x="900.4526315789475" y="556.7684210526317" width="54.98947368421053" height="54.98947368421053" fill="#2D3949"/><g transform="translate(900.45,556.77) scale(1.3744999999999998) rotate(0)"><path d="M10 0L20 10L10 20L0 10L10 0Z" fill="#1f7cc4"/></g><circle cx="941.695" cy="570.515" r="13.745" fill="#27557c"/><g transform="translate(900.45,584.26) scale(1.3744999999999998) rotate(0)"><path d="M10 0L20 10L10 20L0 10L10 0Z" fill="#1998f8"/></g><g transform="translate(927.95,584.26) scale(1.3744999999999998) rotate(0)"><path fill-rule="evenodd" clip-rule="evenodd" d="M10 20C15.5228 20 20 15.5228 20 10C20 4.47715 15.5228 0 10 0C4.47715 0 0 4.47715 0 10C0 15.5228 4.47715 20 10 20ZM10 17C13.866 17 17 13.866 17 10C17 6.13401 13.866 3 10 3C6.13401 3 3 6.13401 3 10C3 13.866 6.13401 17 10 17Z" fill="#1e81ce"/></g><circle cx="996.6850000000001" cy="584.265" r="27.495" fill="#2d3a4b"/><rect x="1037.9263157894738" y="556.7684210526317" width="54.98947368421053" height="54.98947368421053" fill="#2D3949"/><rect x="1037.93" y="556.77" width="27.49" height="27.49" fill="#284f72"/><g transform="translate(1065.42,556.77) scale(1.3744999999999998) rotate(0)"><path fill-rule="evenodd" clip-rule="evenodd" d="M10 20C15.5228 20 20 15.5228 20 10C20 4.47715 15.5228 0 10 0C4.47715 0 0 4.47715 0 10C0 15.5228 4.47715 20 10 20ZM10 17C13.866 17 17 13.866 17 10C17 6.13401 13.866 3 10 3C6.13401 3 3 6.13401 3 10C3 13.866 6.13401 17 10 17Z" fill="#2b445d"/></g><g transform="translate(1037.93,584.26) scale(1.3744999999999998) rotate(0)"><path d="M10 0L20 10L10 20L0 10L10 0Z" fill="#1f7bc2"/></g><rect x="1065.42" y="584.26" width="27.49" height="27.49" fill="#24669c"/><g transform="translate(1106.66,556.77) scale(2.7495000000000003) rotate(0)"><path fill-rule="evenodd" clip-rule="evenodd" d="M10 20C15.5228 20 20 15.5228 20 10C20 4.47715 15.5228 0 10 0C4.47715 0 0 4.47715 0 10C0 15.5228 4.47715 20 10 20ZM10 17C13.866 17 17 13.866 17 10C17 6.13401 13.866 3 10 3C6.13401 3 3 6.13401 3 10C3 13.866 6.13401 17 10 17Z" fill="#1999fb"/></g><g transform="translate(1175.4,556.77) scale(2.7495000000000003) rotate(0)"><path d="M10 0L20 10L10 20L0 10L10 0Z" fill="#2368a0"/></g><g transform="translate(1244.14,556.77) scale(2.7495000000000003) rotate(0)"><path fill-rule="evenodd" clip-rule="evenodd" d="M10 20C15.5228 20 20 15.5228 20 10C20 4.47715 15.5228 0 10 0C4.47715 0 0 4.47715 0 10C0 15.5228 4.47715 20 10 20ZM10 17C13.866 17 17 13.866 17 10C17 6.13401 13.866 3 10 3C6.13401 3 3 6.13401 3 10C3 13.866 6.13401 17 10 17Z" fill="#2369a1"/></g></g></svg>