<?xml version="1.0" standalone="no"?><svg xmlns:xlink="http://www.w3.org/1999/xlink" xmlns="http://www.w3.org/2000/svg" viewBox="0 0 1000 562.503097484017" preserveAspectRatio="xMaxYMax slice"><g transform="scale(0.8259957378619925)"><rect x="0" y="0" width="1210.6666666666667" height="681" fill="#2D3949"/><rect x="245.91666666666666" y="18.916666666666668" width="37.833333333333336" height="37.833333333333336" fill="#2D3949"/><g transform="translate(245.92,18.92) scale(0.9460000000000001) rotate(0)"><path d="M10 0L20 10L10 20L0 10L10 0Z" fill="#199AFC"/></g><rect x="264.83" y="18.92" width="18.92" height="18.92" fill="#199AFC"/><g transform="translate(245.92,37.83) scale(0.9460000000000001) rotate(0)"><path d="M10 0L20 10L10 20L0 10L10 0Z" fill="#199AFC"/></g><g transform="translate(264.83,37.83) scale(0.9460000000000001) rotate(0)"><path d="M10 0L20 10L10 20L0 10L10 0Z" fill="#199AFC"/></g><rect x="321.58333333333337" y="18.916666666666668" width="37.833333333333336" height="37.833333333333336" fill="#2D3949"/><g transform="translate(321.58,18.92) scale(0.9460000000000001) rotate(0)"><path d="M10 0L20 10L10 20L0 10L10 0Z" fill="#199AFC"/></g><circle cx="331.03999999999996" cy="47.29" r="9.46" fill="#199AFC"/><circle cx="349.96" cy="47.29" r="9.46" fill="#199AFC"/><rect x="548.5833333333334" y="18.916666666666668" width="37.833333333333336" height="37.833333333333336" fill="#2D3949"/><g transform="translate(548.58,18.92) scale(0.9460000000000001) rotate(0)"><path d="M10 0L20 10L10 20L0 10L10 0Z" fill="#199AFC"/></g><rect x="699.9166666666666" y="18.916666666666668" width="37.833333333333336" height="37.833333333333336" fill="#2D3949"/><g transform="translate(699.92,37.83) scale(0.9460000000000001) rotate(0)"><path d="M10 0L20 10L10 20L0 10L10 0Z" fill="#199AFC"/></g><rect x="1078.2500000000002" y="18.916666666666668" width="37.833333333333336" height="37.833333333333336" fill="#2D3949"/><circle cx="1106.63" cy="28.380000000000003" r="9.46" fill="#199AFC"/><rect x="1153.9166666666667" y="18.916666666666668" width="37.833333333333336" height="37.833333333333336" fill="#2D3949"/><g transform="translate(1172.83,18.92) scale(0.9460000000000001) rotate(0)"><path fill-rule="evenodd" clip-rule="evenodd" d="M10 20C15.5228 20 20 15.5228 20 10C20 4.47715 15.5228 0 10 0C4.47715 0 0 4.47715 0 10C0 15.5228 4.47715 20 10 20ZM10 17C13.866 17 17 13.866 17 10C17 6.13401 13.866 3 10 3C6.13401 3 3 6.13401 3 10C3 13.866 6.13401 17 10 17Z" fill="#199AFC"/></g><rect x="245.91666666666666" y="94.58333333333334" width="37.833333333333336" height="37.833333333333336" fill="#2D3949"/><g transform="translate(245.92,94.58) scale(0.9460000000000001) rotate(0)"><path d="M10 0L20 10L10 20L0 10L10 0Z" fill="#199AFC"/></g><rect x="264.83" y="94.58" width="18.92" height="18.92" fill="#199AFC"/><rect x="397.25000000000006" y="94.58333333333334" width="37.833333333333336" height="37.833333333333336" fill="#2D3949"/><g transform="translate(416.17,113.5) scale(0.9460000000000001) rotate(0)"><path fill-rule="evenodd" clip-rule="evenodd" d="M10 20C15.5228 20 20 15.5228 20 10C20 4.47715 15.5228 0 10 0C4.47715 0 0 4.47715 0 10C0 15.5228 4.47715 20 10 20ZM10 17C13.866 17 17 13.866 17 10C17 6.13401 13.866 3 10 3C6.13401 3 3 6.13401 3 10C3 13.866 6.13401 17 10 17Z" fill="#199AFC"/></g><rect x="472.9166666666667" y="94.58333333333334" width="37.833333333333336" height="37.833333333333336" fill="#2D3949"/><g transform="translate(472.92,94.58) scale(0.9460000000000001) rotate(0)"><path fill-rule="evenodd" clip-rule="evenodd" d="M10 20C15.5228 20 20 15.5228 20 10C20 4.47715 15.5228 0 10 0C4.47715 0 0 4.47715 0 10C0 15.5228 4.47715 20 10 20ZM10 17C13.866 17 17 13.866 17 10C17 6.13401 13.866 3 10 3C6.13401 3 3 6.13401 3 10C3 13.866 6.13401 17 10 17Z" fill="#199AFC"/></g><g transform="translate(491.83,94.58) scale(0.9460000000000001) rotate(0)"><path fill-rule="evenodd" clip-rule="evenodd" d="M10 20C15.5228 20 20 15.5228 20 10C20 4.47715 15.5228 0 10 0C4.47715 0 0 4.47715 0 10C0 15.5228 4.47715 20 10 20ZM10 17C13.866 17 17 13.866 17 10C17 6.13401 13.866 3 10 3C6.13401 3 3 6.13401 3 10C3 13.866 6.13401 17 10 17Z" fill="#199AFC"/></g><g transform="translate(491.83,113.5) scale(0.9460000000000001) rotate(0)"><path d="M10 0L20 10L10 20L0 10L10 0Z" fill="#199AFC"/></g><rect x="548.5833333333334" y="94.58333333333334" width="37.833333333333336" height="37.833333333333336" fill="#2D3949"/><g transform="translate(548.58,113.5) scale(0.9460000000000001) rotate(0)"><path fill-rule="evenodd" clip-rule="evenodd" d="M10 20C15.5228 20 20 15.5228 20 10C20 4.47715 15.5228 0 10 0C4.47715 0 0 4.47715 0 10C0 15.5228 4.47715 20 10 20ZM10 17C13.866 17 17 13.866 17 10C17 6.13401 13.866 3 10 3C6.13401 3 3 6.13401 3 10C3 13.866 6.13401 17 10 17Z" fill="#199AFC"/></g><rect x="624.25" y="94.58333333333334" width="37.833333333333336" height="37.833333333333336" fill="#2D3949"/><g transform="translate(624.25,94.58) scale(0.9460000000000001) rotate(0)"><path d="M10 0L20 10L10 20L0 10L10 0Z" fill="#199AFC"/></g><circle cx="652.63" cy="122.96000000000001" r="9.46" fill="#199AFC"/><rect x="699.9166666666666" y="94.58333333333334" width="37.833333333333336" height="37.833333333333336" fill="#2D3949"/><g transform="translate(718.83,94.58) scale(0.9460000000000001) rotate(0)"><path fill-rule="evenodd" clip-rule="evenodd" d="M10 20C15.5228 20 20 15.5228 20 10C20 4.47715 15.5228 0 10 0C4.47715 0 0 4.47715 0 10C0 15.5228 4.47715 20 10 20ZM10 17C13.866 17 17 13.866 17 10C17 6.13401 13.866 3 10 3C6.13401 3 3 6.13401 3 10C3 13.866 6.13401 17 10 17Z" fill="#199AFC"/></g><g transform="translate(718.83,113.5) scale(0.9460000000000001) rotate(0)"><path d="M10 0L20 10L10 20L0 10L10 0Z" fill="#199AFC"/></g><rect x="926.9166666666666" y="94.58333333333334" width="37.833333333333336" height="37.833333333333336" fill="#2D3949"/><g transform="translate(926.92,94.58) scale(0.9460000000000001) rotate(0)"><path d="M10 0L20 10L10 20L0 10L10 0Z" fill="#199AFC"/></g><rect x="18.916666666666668" y="170.25" width="37.833333333333336" height="37.833333333333336" fill="#2D3949"/><g transform="translate(37.83,170.25) scale(0.9460000000000001) rotate(0)"><path d="M10 0L20 10L10 20L0 10L10 0Z" fill="#199AFC"/></g><rect x="170.25" y="170.25" width="37.833333333333336" height="37.833333333333336" fill="#2D3949"/><g transform="translate(189.17,170.25) scale(0.9460000000000001) rotate(0)"><path fill-rule="evenodd" clip-rule="evenodd" d="M10 20C15.5228 20 20 15.5228 20 10C20 4.47715 15.5228 0 10 0C4.47715 0 0 4.47715 0 10C0 15.5228 4.47715 20 10 20ZM10 17C13.866 17 17 13.866 17 10C17 6.13401 13.866 3 10 3C6.13401 3 3 6.13401 3 10C3 13.866 6.13401 17 10 17Z" fill="#199AFC"/></g><rect x="245.91666666666666" y="170.25" width="37.833333333333336" height="37.833333333333336" fill="#2D3949"/><rect x="321.58333333333337" y="170.25" width="37.833333333333336" height="37.833333333333336" fill="#2D3949"/><circle cx="349.96" cy="198.63" r="9.46" fill="#199AFC"/><rect x="397.25000000000006" y="170.25" width="37.833333333333336" height="37.833333333333336" fill="#2D3949"/><rect x="397.25" y="170.25" width="18.92" height="18.92" fill="#199AFC"/><rect x="548.5833333333334" y="170.25" width="37.833333333333336" height="37.833333333333336" fill="#2D3949"/><g transform="translate(567.5,170.25) scale(0.9460000000000001) rotate(0)"><path d="M10 0L20 10L10 20L0 10L10 0Z" fill="#199AFC"/></g><g transform="translate(548.58,189.17) scale(0.9460000000000001) rotate(0)"><path d="M10 0L20 10L10 20L0 10L10 0Z" fill="#199AFC"/></g><g transform="translate(567.5,189.17) scale(0.9460000000000001) rotate(0)"><path d="M10 0L20 10L10 20L0 10L10 0Z" fill="#199AFC"/></g><rect x="624.25" y="170.25" width="37.833333333333336" height="37.833333333333336" fill="#2D3949"/><rect x="1078.2500000000002" y="170.25" width="37.833333333333336" height="37.833333333333336" fill="#2D3949"/><rect x="472.9166666666667" y="245.91666666666666" width="37.833333333333336" height="37.833333333333336" fill="#2D3949"/><rect x="548.5833333333334" y="245.91666666666666" width="37.833333333333336" height="37.833333333333336" fill="#2D3949"/><circle cx="576.96" cy="255.38" r="9.46" fill="#199AFC"/><g transform="translate(548.58,264.83) scale(0.9460000000000001) rotate(0)"><path d="M10 0L20 10L10 20L0 10L10 0Z" fill="#199AFC"/></g><rect x="775.5833333333334" y="245.91666666666666" width="37.833333333333336" height="37.833333333333336" fill="#2D3949"/><g transform="translate(794.5,245.92) scale(0.9460000000000001) rotate(0)"><path fill-rule="evenodd" clip-rule="evenodd" d="M10 20C15.5228 20 20 15.5228 20 10C20 4.47715 15.5228 0 10 0C4.47715 0 0 4.47715 0 10C0 15.5228 4.47715 20 10 20ZM10 17C13.866 17 17 13.866 17 10C17 6.13401 13.866 3 10 3C6.13401 3 3 6.13401 3 10C3 13.866 6.13401 17 10 17Z" fill="#199AFC"/></g><g transform="translate(775.58,264.83) scale(0.9460000000000001) rotate(0)"><path d="M10 0L20 10L10 20L0 10L10 0Z" fill="#199AFC"/></g><g transform="translate(794.5,264.83) scale(0.9460000000000001) rotate(0)"><path fill-rule="evenodd" clip-rule="evenodd" d="M10 20C15.5228 20 20 15.5228 20 10C20 4.47715 15.5228 0 10 0C4.47715 0 0 4.47715 0 10C0 15.5228 4.47715 20 10 20ZM10 17C13.866 17 17 13.866 17 10C17 6.13401 13.866 3 10 3C6.13401 3 3 6.13401 3 10C3 13.866 6.13401 17 10 17Z" fill="#199AFC"/></g><rect x="851.25" y="245.91666666666666" width="37.833333333333336" height="37.833333333333336" fill="#2D3949"/><circle cx="860.71" cy="274.28999999999996" r="9.46" fill="#199AFC"/><g transform="translate(870.17,264.83) scale(0.9460000000000001) rotate(0)"><path d="M10 0L20 10L10 20L0 10L10 0Z" fill="#199AFC"/></g><rect x="926.9166666666666" y="245.91666666666666" width="37.833333333333336" height="37.833333333333336" fill="#2D3949"/><rect x="1002.5833333333334" y="245.91666666666666" width="37.833333333333336" height="37.833333333333336" fill="#2D3949"/><rect x="1021.5" y="245.92" width="18.92" height="18.92" fill="#199AFC"/><circle cx="1030.96" cy="274.28999999999996" r="9.46" fill="#199AFC"/><rect x="245.91666666666666" y="321.58333333333337" width="37.833333333333336" height="37.833333333333336" fill="#2D3949"/><g transform="translate(245.92,340.5) scale(0.9460000000000001) rotate(0)"><path fill-rule="evenodd" clip-rule="evenodd" d="M10 20C15.5228 20 20 15.5228 20 10C20 4.47715 15.5228 0 10 0C4.47715 0 0 4.47715 0 10C0 15.5228 4.47715 20 10 20ZM10 17C13.866 17 17 13.866 17 10C17 6.13401 13.866 3 10 3C6.13401 3 3 6.13401 3 10C3 13.866 6.13401 17 10 17Z" fill="#199AFC"/></g><rect x="472.9166666666667" y="321.58333333333337" width="37.833333333333336" height="37.833333333333336" fill="#2D3949"/><g transform="translate(491.83,321.58) scale(0.9460000000000001) rotate(0)"><path fill-rule="evenodd" clip-rule="evenodd" d="M10 20C15.5228 20 20 15.5228 20 10C20 4.47715 15.5228 0 10 0C4.47715 0 0 4.47715 0 10C0 15.5228 4.47715 20 10 20ZM10 17C13.866 17 17 13.866 17 10C17 6.13401 13.866 3 10 3C6.13401 3 3 6.13401 3 10C3 13.866 6.13401 17 10 17Z" fill="#199AFC"/></g><g transform="translate(472.92,340.5) scale(0.9460000000000001) rotate(0)"><path d="M10 0L20 10L10 20L0 10L10 0Z" fill="#199AFC"/></g><rect x="548.5833333333334" y="321.58333333333337" width="37.833333333333336" height="37.833333333333336" fill="#2D3949"/><g transform="translate(548.58,321.58) scale(0.9460000000000001) rotate(0)"><path fill-rule="evenodd" clip-rule="evenodd" d="M10 20C15.5228 20 20 15.5228 20 10C20 4.47715 15.5228 0 10 0C4.47715 0 0 4.47715 0 10C0 15.5228 4.47715 20 10 20ZM10 17C13.866 17 17 13.866 17 10C17 6.13401 13.866 3 10 3C6.13401 3 3 6.13401 3 10C3 13.866 6.13401 17 10 17Z" fill="#199AFC"/></g><rect x="548.58" y="340.5" width="18.92" height="18.92" fill="#199AFC"/><rect x="624.25" y="321.58333333333337" width="37.833333333333336" height="37.833333333333336" fill="#2D3949"/><circle cx="633.71" cy="331.03999999999996" r="9.46" fill="#199AFC"/><rect x="699.9166666666666" y="321.58333333333337" width="37.833333333333336" height="37.833333333333336" fill="#2D3949"/><rect x="699.92" y="321.58" width="18.92" height="18.92" fill="#199AFC"/><g transform="translate(699.92,340.5) scale(0.9460000000000001) rotate(0)"><path d="M10 0L20 10L10 20L0 10L10 0Z" fill="#199AFC"/></g><rect x="1002.5833333333334" y="321.58333333333337" width="37.833333333333336" height="37.833333333333336" fill="#2D3949"/><g transform="translate(1021.5,321.58) scale(0.9460000000000001) rotate(0)"><path d="M10 0L20 10L10 20L0 10L10 0Z" fill="#199AFC"/></g><g transform="translate(1002.58,340.5) scale(0.9460000000000001) rotate(0)"><path d="M10 0L20 10L10 20L0 10L10 0Z" fill="#199AFC"/></g><rect x="1078.2500000000002" y="321.58333333333337" width="37.833333333333336" height="37.833333333333336" fill="#2D3949"/><circle cx="1087.71" cy="331.03999999999996" r="9.46" fill="#199AFC"/><g transform="translate(1097.17,321.58) scale(0.9460000000000001) rotate(0)"><path fill-rule="evenodd" clip-rule="evenodd" d="M10 20C15.5228 20 20 15.5228 20 10C20 4.47715 15.5228 0 10 0C4.47715 0 0 4.47715 0 10C0 15.5228 4.47715 20 10 20ZM10 17C13.866 17 17 13.866 17 10C17 6.13401 13.866 3 10 3C6.13401 3 3 6.13401 3 10C3 13.866 6.13401 17 10 17Z" fill="#199AFC"/></g><rect x="321.58333333333337" y="397.25000000000006" width="37.833333333333336" height="37.833333333333336" fill="#2D3949"/><g transform="translate(321.58,397.25) scale(0.9460000000000001) rotate(0)"><path fill-rule="evenodd" clip-rule="evenodd" d="M10 20C15.5228 20 20 15.5228 20 10C20 4.47715 15.5228 0 10 0C4.47715 0 0 4.47715 0 10C0 15.5228 4.47715 20 10 20ZM10 17C13.866 17 17 13.866 17 10C17 6.13401 13.866 3 10 3C6.13401 3 3 6.13401 3 10C3 13.866 6.13401 17 10 17Z" fill="#199AFC"/></g><rect x="472.9166666666667" y="397.25000000000006" width="37.833333333333336" height="37.833333333333336" fill="#2D3949"/><circle cx="482.38" cy="406.71" r="9.46" fill="#199AFC"/><g transform="translate(491.83,416.17) scale(0.9460000000000001) rotate(0)"><path d="M10 0L20 10L10 20L0 10L10 0Z" fill="#199AFC"/></g><rect x="926.9166666666666" y="397.25000000000006" width="37.833333333333336" height="37.833333333333336" fill="#2D3949"/><rect x="926.92" y="397.25" width="18.92" height="18.92" fill="#199AFC"/><circle cx="936.38" cy="425.63" r="9.46" fill="#199AFC"/><rect x="18.916666666666668" y="472.9166666666667" width="37.833333333333336" height="37.833333333333336" fill="#2D3949"/><rect x="170.25" y="472.9166666666667" width="37.833333333333336" height="37.833333333333336" fill="#2D3949"/><rect x="189.17" y="472.92" width="18.92" height="18.92" fill="#199AFC"/><rect x="548.5833333333334" y="472.9166666666667" width="37.833333333333336" height="37.833333333333336" fill="#2D3949"/><rect x="851.25" y="472.9166666666667" width="37.833333333333336" height="37.833333333333336" fill="#2D3949"/><g transform="translate(851.25,491.83) scale(0.9460000000000001) rotate(0)"><path fill-rule="evenodd" clip-rule="evenodd" d="M10 20C15.5228 20 20 15.5228 20 10C20 4.47715 15.5228 0 10 0C4.47715 0 0 4.47715 0 10C0 15.5228 4.47715 20 10 20ZM10 17C13.866 17 17 13.866 17 10C17 6.13401 13.866 3 10 3C6.13401 3 3 6.13401 3 10C3 13.866 6.13401 17 10 17Z" fill="#199AFC"/></g><rect x="170.25" y="548.5833333333334" width="37.833333333333336" height="37.833333333333336" fill="#2D3949"/><g transform="translate(189.17,548.58) scale(0.9460000000000001) rotate(0)"><path d="M10 0L20 10L10 20L0 10L10 0Z" fill="#199AFC"/></g><rect x="170.25" y="567.5" width="18.92" height="18.92" fill="#199AFC"/><rect x="1078.2500000000002" y="548.5833333333334" width="37.833333333333336" height="37.833333333333336" fill="#2D3949"/><rect x="1097.17" y="567.5" width="18.92" height="18.92" fill="#199AFC"/><rect x="1153.9166666666667" y="548.5833333333334" width="37.833333333333336" height="37.833333333333336" fill="#2D3949"/><rect x="1153.92" y="567.5" width="18.92" height="18.92" fill="#199AFC"/><g transform="translate(1172.83,567.5) scale(0.9460000000000001) rotate(0)"><path d="M10 0L20 10L10 20L0 10L10 0Z" fill="#199AFC"/></g><rect x="94.58333333333334" y="624.25" width="37.833333333333336" height="37.833333333333336" fill="#2D3949"/><rect x="170.25" y="624.25" width="37.833333333333336" height="37.833333333333336" fill="#2D3949"/><g transform="translate(170.25,643.17) scale(0.9460000000000001) rotate(0)"><path fill-rule="evenodd" clip-rule="evenodd" d="M10 20C15.5228 20 20 15.5228 20 10C20 4.47715 15.5228 0 10 0C4.47715 0 0 4.47715 0 10C0 15.5228 4.47715 20 10 20ZM10 17C13.866 17 17 13.866 17 10C17 6.13401 13.866 3 10 3C6.13401 3 3 6.13401 3 10C3 13.866 6.13401 17 10 17Z" fill="#199AFC"/></g><rect x="397.25000000000006" y="624.25" width="37.833333333333336" height="37.833333333333336" fill="#2D3949"/><rect x="624.25" y="624.25" width="37.833333333333336" height="37.833333333333336" fill="#2D3949"/><rect x="699.9166666666666" y="624.25" width="37.833333333333336" height="37.833333333333336" fill="#2D3949"/><rect x="718.83" y="624.25" width="18.92" height="18.92" fill="#199AFC"/><rect x="775.5833333333334" y="624.25" width="37.833333333333336" height="37.833333333333336" fill="#2D3949"/><g transform="translate(775.58,643.17) scale(0.9460000000000001) rotate(0)"><path fill-rule="evenodd" clip-rule="evenodd" d="M10 20C15.5228 20 20 15.5228 20 10C20 4.47715 15.5228 0 10 0C4.47715 0 0 4.47715 0 10C0 15.5228 4.47715 20 10 20ZM10 17C13.866 17 17 13.866 17 10C17 6.13401 13.866 3 10 3C6.13401 3 3 6.13401 3 10C3 13.866 6.13401 17 10 17Z" fill="#199AFC"/></g><rect x="926.9166666666666" y="624.25" width="37.833333333333336" height="37.833333333333336" fill="#2D3949"/><g transform="translate(926.92,624.25) scale(0.9460000000000001) rotate(0)"><path d="M10 0L20 10L10 20L0 10L10 0Z" fill="#199AFC"/></g><g transform="translate(926.92,643.17) scale(0.9460000000000001) rotate(0)"><path fill-rule="evenodd" clip-rule="evenodd" d="M10 20C15.5228 20 20 15.5228 20 10C20 4.47715 15.5228 0 10 0C4.47715 0 0 4.47715 0 10C0 15.5228 4.47715 20 10 20ZM10 17C13.866 17 17 13.866 17 10C17 6.13401 13.866 3 10 3C6.13401 3 3 6.13401 3 10C3 13.866 6.13401 17 10 17Z" fill="#199AFC"/></g></g></svg>