<?xml version="1.0" standalone="no"?><svg xmlns:xlink="http://www.w3.org/1999/xlink" xmlns="http://www.w3.org/2000/svg" viewBox="0 0 1000 562.503097484017" preserveAspectRatio="xMaxYMax slice"><g transform="scale(0.8259957378619925)"><rect x="0" y="0" width="1210.6666666666667" height="681" fill="#2D3949"/><rect x="30.26666666666667" y="30.26666666666667" width="15.133333333333333" height="15.133333333333333" fill="#2D3949"/><rect x="30.27" y="30.27" width="7.57" height="7.57" fill="#199AFC"/><rect x="408.6" y="30.26666666666667" width="15.133333333333333" height="15.133333333333333" fill="#2D3949"/><circle cx="412.38500000000005" cy="34.055" r="3.785" fill="#199AFC"/><circle cx="412.38500000000005" cy="41.614999999999995" r="3.785" fill="#199AFC"/><g transform="translate(416.17,37.83) scale(0.3785) rotate(0)"><path fill-rule="evenodd" clip-rule="evenodd" d="M10 20C15.5228 20 20 15.5228 20 10C20 4.47715 15.5228 0 10 0C4.47715 0 0 4.47715 0 10C0 15.5228 4.47715 20 10 20ZM10 17C13.866 17 17 13.866 17 10C17 6.13401 13.866 3 10 3C6.13401 3 3 6.13401 3 10C3 13.866 6.13401 17 10 17Z" fill="#199AFC"/></g><rect x="484.26666666666665" y="30.26666666666667" width="15.133333333333333" height="15.133333333333333" fill="#2D3949"/><rect x="635.6" y="30.26666666666667" width="15.133333333333333" height="15.133333333333333" fill="#2D3949"/><rect x="635.6" y="30.27" width="7.57" height="7.57" fill="#199AFC"/><g transform="translate(635.6,37.83) scale(0.3785) rotate(0)"><path d="M10 0L20 10L10 20L0 10L10 0Z" fill="#199AFC"/></g><rect x="1013.9333333333334" y="30.26666666666667" width="15.133333333333333" height="15.133333333333333" fill="#2D3949"/><circle cx="1017.7149999999999" cy="34.055" r="3.785" fill="#199AFC"/><g transform="translate(1021.5,37.83) scale(0.3785) rotate(0)"><path fill-rule="evenodd" clip-rule="evenodd" d="M10 20C15.5228 20 20 15.5228 20 10C20 4.47715 15.5228 0 10 0C4.47715 0 0 4.47715 0 10C0 15.5228 4.47715 20 10 20ZM10 17C13.866 17 17 13.866 17 10C17 6.13401 13.866 3 10 3C6.13401 3 3 6.13401 3 10C3 13.866 6.13401 17 10 17Z" fill="#199AFC"/></g><rect x="1089.6000000000001" y="30.26666666666667" width="15.133333333333333" height="15.133333333333333" fill="#2D3949"/><g transform="translate(1097.17,30.27) scale(0.3785) rotate(0)"><path d="M10 0L20 10L10 20L0 10L10 0Z" fill="#199AFC"/></g><circle cx="1093.385" cy="41.614999999999995" r="3.785" fill="#199AFC"/><rect x="30.26666666666667" y="105.93333333333334" width="15.133333333333333" height="15.133333333333333" fill="#2D3949"/><g transform="translate(30.27,105.93) scale(0.3785) rotate(0)"><path fill-rule="evenodd" clip-rule="evenodd" d="M10 20C15.5228 20 20 15.5228 20 10C20 4.47715 15.5228 0 10 0C4.47715 0 0 4.47715 0 10C0 15.5228 4.47715 20 10 20ZM10 17C13.866 17 17 13.866 17 10C17 6.13401 13.866 3 10 3C6.13401 3 3 6.13401 3 10C3 13.866 6.13401 17 10 17Z" fill="#199AFC"/></g><rect x="105.93333333333334" y="105.93333333333334" width="15.133333333333333" height="15.133333333333333" fill="#2D3949"/><circle cx="117.285" cy="109.715" r="3.785" fill="#199AFC"/><g transform="translate(105.93,113.5) scale(0.3785) rotate(0)"><path fill-rule="evenodd" clip-rule="evenodd" d="M10 20C15.5228 20 20 15.5228 20 10C20 4.47715 15.5228 0 10 0C4.47715 0 0 4.47715 0 10C0 15.5228 4.47715 20 10 20ZM10 17C13.866 17 17 13.866 17 10C17 6.13401 13.866 3 10 3C6.13401 3 3 6.13401 3 10C3 13.866 6.13401 17 10 17Z" fill="#199AFC"/></g><g transform="translate(113.5,113.5) scale(0.3785) rotate(0)"><path d="M10 0L20 10L10 20L0 10L10 0Z" fill="#199AFC"/></g><rect x="408.6" y="105.93333333333334" width="15.133333333333333" height="15.133333333333333" fill="#2D3949"/><g transform="translate(416.17,105.93) scale(0.3785) rotate(0)"><path fill-rule="evenodd" clip-rule="evenodd" d="M10 20C15.5228 20 20 15.5228 20 10C20 4.47715 15.5228 0 10 0C4.47715 0 0 4.47715 0 10C0 15.5228 4.47715 20 10 20ZM10 17C13.866 17 17 13.866 17 10C17 6.13401 13.866 3 10 3C6.13401 3 3 6.13401 3 10C3 13.866 6.13401 17 10 17Z" fill="#199AFC"/></g><rect x="559.9333333333334" y="105.93333333333334" width="15.133333333333333" height="15.133333333333333" fill="#2D3949"/><g transform="translate(567.5,105.93) scale(0.3785) rotate(0)"><path d="M10 0L20 10L10 20L0 10L10 0Z" fill="#199AFC"/></g><rect x="181.60000000000002" y="181.60000000000002" width="15.133333333333333" height="15.133333333333333" fill="#2D3949"/><rect x="181.6" y="181.6" width="7.57" height="7.57" fill="#199AFC"/><g transform="translate(189.17,181.6) scale(0.3785) rotate(0)"><path d="M10 0L20 10L10 20L0 10L10 0Z" fill="#199AFC"/></g><g transform="translate(181.6,189.17) scale(0.3785) rotate(0)"><path fill-rule="evenodd" clip-rule="evenodd" d="M10 20C15.5228 20 20 15.5228 20 10C20 4.47715 15.5228 0 10 0C4.47715 0 0 4.47715 0 10C0 15.5228 4.47715 20 10 20ZM10 17C13.866 17 17 13.866 17 10C17 6.13401 13.866 3 10 3C6.13401 3 3 6.13401 3 10C3 13.866 6.13401 17 10 17Z" fill="#199AFC"/></g><rect x="711.2666666666667" y="181.60000000000002" width="15.133333333333333" height="15.133333333333333" fill="#2D3949"/><rect x="862.6" y="181.60000000000002" width="15.133333333333333" height="15.133333333333333" fill="#2D3949"/><rect x="1013.9333333333334" y="181.60000000000002" width="15.133333333333333" height="15.133333333333333" fill="#2D3949"/><circle cx="1025.285" cy="185.385" r="3.785" fill="#199AFC"/><rect x="1165.2666666666667" y="181.60000000000002" width="15.133333333333333" height="15.133333333333333" fill="#2D3949"/><g transform="translate(1165.27,181.6) scale(0.3785) rotate(0)"><path d="M10 0L20 10L10 20L0 10L10 0Z" fill="#199AFC"/></g><rect x="1172.83" y="189.17" width="7.57" height="7.57" fill="#199AFC"/><rect x="181.60000000000002" y="257.26666666666665" width="15.133333333333333" height="15.133333333333333" fill="#2D3949"/><circle cx="192.95499999999998" cy="268.615" r="3.785" fill="#199AFC"/><rect x="559.9333333333334" y="257.26666666666665" width="15.133333333333333" height="15.133333333333333" fill="#2D3949"/><circle cx="563.7149999999999" cy="261.055" r="3.785" fill="#199AFC"/><circle cx="563.7149999999999" cy="268.615" r="3.785" fill="#199AFC"/><rect x="635.6" y="257.26666666666665" width="15.133333333333333" height="15.133333333333333" fill="#2D3949"/><g transform="translate(643.17,257.27) scale(0.3785) rotate(0)"><path d="M10 0L20 10L10 20L0 10L10 0Z" fill="#199AFC"/></g><g transform="translate(643.17,264.83) scale(0.3785) rotate(0)"><path d="M10 0L20 10L10 20L0 10L10 0Z" fill="#199AFC"/></g><rect x="938.2666666666667" y="257.26666666666665" width="15.133333333333333" height="15.133333333333333" fill="#2D3949"/><g transform="translate(938.27,257.27) scale(0.3785) rotate(0)"><path fill-rule="evenodd" clip-rule="evenodd" d="M10 20C15.5228 20 20 15.5228 20 10C20 4.47715 15.5228 0 10 0C4.47715 0 0 4.47715 0 10C0 15.5228 4.47715 20 10 20ZM10 17C13.866 17 17 13.866 17 10C17 6.13401 13.866 3 10 3C6.13401 3 3 6.13401 3 10C3 13.866 6.13401 17 10 17Z" fill="#199AFC"/></g><g transform="translate(945.83,257.27) scale(0.3785) rotate(0)"><path fill-rule="evenodd" clip-rule="evenodd" d="M10 20C15.5228 20 20 15.5228 20 10C20 4.47715 15.5228 0 10 0C4.47715 0 0 4.47715 0 10C0 15.5228 4.47715 20 10 20ZM10 17C13.866 17 17 13.866 17 10C17 6.13401 13.866 3 10 3C6.13401 3 3 6.13401 3 10C3 13.866 6.13401 17 10 17Z" fill="#199AFC"/></g><g transform="translate(938.27,264.83) scale(0.3785) rotate(0)"><path fill-rule="evenodd" clip-rule="evenodd" d="M10 20C15.5228 20 20 15.5228 20 10C20 4.47715 15.5228 0 10 0C4.47715 0 0 4.47715 0 10C0 15.5228 4.47715 20 10 20ZM10 17C13.866 17 17 13.866 17 10C17 6.13401 13.866 3 10 3C6.13401 3 3 6.13401 3 10C3 13.866 6.13401 17 10 17Z" fill="#199AFC"/></g><rect x="1165.2666666666667" y="257.26666666666665" width="15.133333333333333" height="15.133333333333333" fill="#2D3949"/><rect x="1172.83" y="257.27" width="7.57" height="7.57" fill="#199AFC"/><rect x="30.26666666666667" y="332.93333333333334" width="15.133333333333333" height="15.133333333333333" fill="#2D3949"/><circle cx="41.614999999999995" cy="336.71500000000003" r="3.785" fill="#199AFC"/><g transform="translate(30.27,340.5) scale(0.3785) rotate(0)"><path fill-rule="evenodd" clip-rule="evenodd" d="M10 20C15.5228 20 20 15.5228 20 10C20 4.47715 15.5228 0 10 0C4.47715 0 0 4.47715 0 10C0 15.5228 4.47715 20 10 20ZM10 17C13.866 17 17 13.866 17 10C17 6.13401 13.866 3 10 3C6.13401 3 3 6.13401 3 10C3 13.866 6.13401 17 10 17Z" fill="#199AFC"/></g><rect x="105.93333333333334" y="332.93333333333334" width="15.133333333333333" height="15.133333333333333" fill="#2D3949"/><rect x="332.93333333333334" y="332.93333333333334" width="15.133333333333333" height="15.133333333333333" fill="#2D3949"/><g transform="translate(340.5,332.93) scale(0.3785) rotate(0)"><path d="M10 0L20 10L10 20L0 10L10 0Z" fill="#199AFC"/></g><rect x="711.2666666666667" y="332.93333333333334" width="15.133333333333333" height="15.133333333333333" fill="#2D3949"/><g transform="translate(718.83,332.93) scale(0.3785) rotate(0)"><path d="M10 0L20 10L10 20L0 10L10 0Z" fill="#199AFC"/></g><rect x="105.93333333333334" y="408.6" width="15.133333333333333" height="15.133333333333333" fill="#2D3949"/><circle cx="117.285" cy="419.95500000000004" r="3.785" fill="#199AFC"/><rect x="332.93333333333334" y="408.6" width="15.133333333333333" height="15.133333333333333" fill="#2D3949"/><rect x="332.93" y="416.17" width="7.57" height="7.57" fill="#199AFC"/><rect x="340.5" y="416.17" width="7.57" height="7.57" fill="#199AFC"/><rect x="635.6" y="408.6" width="15.133333333333333" height="15.133333333333333" fill="#2D3949"/><g transform="translate(635.6,408.6) scale(0.3785) rotate(0)"><path d="M10 0L20 10L10 20L0 10L10 0Z" fill="#199AFC"/></g><rect x="786.9333333333334" y="408.6" width="15.133333333333333" height="15.133333333333333" fill="#2D3949"/><rect x="786.93" y="416.17" width="7.57" height="7.57" fill="#199AFC"/><rect x="862.6" y="408.6" width="15.133333333333333" height="15.133333333333333" fill="#2D3949"/><g transform="translate(870.17,408.6) scale(0.3785) rotate(0)"><path fill-rule="evenodd" clip-rule="evenodd" d="M10 20C15.5228 20 20 15.5228 20 10C20 4.47715 15.5228 0 10 0C4.47715 0 0 4.47715 0 10C0 15.5228 4.47715 20 10 20ZM10 17C13.866 17 17 13.866 17 10C17 6.13401 13.866 3 10 3C6.13401 3 3 6.13401 3 10C3 13.866 6.13401 17 10 17Z" fill="#199AFC"/></g><rect x="105.93333333333334" y="484.26666666666665" width="15.133333333333333" height="15.133333333333333" fill="#2D3949"/><circle cx="109.715" cy="488.055" r="3.785" fill="#199AFC"/><rect x="332.93333333333334" y="484.26666666666665" width="15.133333333333333" height="15.133333333333333" fill="#2D3949"/><rect x="332.93" y="484.27" width="7.57" height="7.57" fill="#199AFC"/><rect x="340.5" y="491.83" width="7.57" height="7.57" fill="#199AFC"/><rect x="786.9333333333334" y="484.26666666666665" width="15.133333333333333" height="15.133333333333333" fill="#2D3949"/><rect x="938.2666666666667" y="484.26666666666665" width="15.133333333333333" height="15.133333333333333" fill="#2D3949"/><circle cx="942.055" cy="488.055" r="3.785" fill="#199AFC"/><circle cx="942.055" cy="495.615" r="3.785" fill="#199AFC"/><g transform="translate(945.83,491.83) scale(0.3785) rotate(0)"><path d="M10 0L20 10L10 20L0 10L10 0Z" fill="#199AFC"/></g><rect x="257.26666666666665" y="559.9333333333334" width="15.133333333333333" height="15.133333333333333" fill="#2D3949"/><g transform="translate(264.83,559.93) scale(0.3785) rotate(0)"><path d="M10 0L20 10L10 20L0 10L10 0Z" fill="#199AFC"/></g><rect x="257.27" y="567.5" width="7.57" height="7.57" fill="#199AFC"/><g transform="translate(264.83,567.5) scale(0.3785) rotate(0)"><path fill-rule="evenodd" clip-rule="evenodd" d="M10 20C15.5228 20 20 15.5228 20 10C20 4.47715 15.5228 0 10 0C4.47715 0 0 4.47715 0 10C0 15.5228 4.47715 20 10 20ZM10 17C13.866 17 17 13.866 17 10C17 6.13401 13.866 3 10 3C6.13401 3 3 6.13401 3 10C3 13.866 6.13401 17 10 17Z" fill="#199AFC"/></g><rect x="484.26666666666665" y="559.9333333333334" width="15.133333333333333" height="15.133333333333333" fill="#2D3949"/><circle cx="488.055" cy="563.7149999999999" r="3.785" fill="#199AFC"/><g transform="translate(491.83,567.5) scale(0.3785) rotate(0)"><path fill-rule="evenodd" clip-rule="evenodd" d="M10 20C15.5228 20 20 15.5228 20 10C20 4.47715 15.5228 0 10 0C4.47715 0 0 4.47715 0 10C0 15.5228 4.47715 20 10 20ZM10 17C13.866 17 17 13.866 17 10C17 6.13401 13.866 3 10 3C6.13401 3 3 6.13401 3 10C3 13.866 6.13401 17 10 17Z" fill="#199AFC"/></g><rect x="786.9333333333334" y="559.9333333333334" width="15.133333333333333" height="15.133333333333333" fill="#2D3949"/><rect x="257.26666666666665" y="635.6" width="15.133333333333333" height="15.133333333333333" fill="#2D3949"/><circle cx="268.615" cy="639.385" r="3.785" fill="#199AFC"/><rect x="408.6" y="635.6" width="15.133333333333333" height="15.133333333333333" fill="#2D3949"/><g transform="translate(408.6,635.6) scale(0.3785) rotate(0)"><path d="M10 0L20 10L10 20L0 10L10 0Z" fill="#199AFC"/></g><circle cx="412.38500000000005" cy="646.9549999999999" r="3.785" fill="#199AFC"/><g transform="translate(416.17,643.17) scale(0.3785) rotate(0)"><path fill-rule="evenodd" clip-rule="evenodd" d="M10 20C15.5228 20 20 15.5228 20 10C20 4.47715 15.5228 0 10 0C4.47715 0 0 4.47715 0 10C0 15.5228 4.47715 20 10 20ZM10 17C13.866 17 17 13.866 17 10C17 6.13401 13.866 3 10 3C6.13401 3 3 6.13401 3 10C3 13.866 6.13401 17 10 17Z" fill="#199AFC"/></g><rect x="484.26666666666665" y="635.6" width="15.133333333333333" height="15.133333333333333" fill="#2D3949"/><rect x="491.83" y="635.6" width="7.57" height="7.57" fill="#199AFC"/><circle cx="488.055" cy="646.9549999999999" r="3.785" fill="#199AFC"/><rect x="491.83" y="643.17" width="7.57" height="7.57" fill="#199AFC"/><rect x="635.6" y="635.6" width="15.133333333333333" height="15.133333333333333" fill="#2D3949"/><g transform="translate(643.17,635.6) scale(0.3785) rotate(0)"><path d="M10 0L20 10L10 20L0 10L10 0Z" fill="#199AFC"/></g><rect x="786.9333333333334" y="635.6" width="15.133333333333333" height="15.133333333333333" fill="#2D3949"/><circle cx="790.7149999999999" cy="639.385" r="3.785" fill="#199AFC"/><g transform="translate(786.93,643.17) scale(0.3785) rotate(0)"><path d="M10 0L20 10L10 20L0 10L10 0Z" fill="#199AFC"/></g><rect x="938.2666666666667" y="635.6" width="15.133333333333333" height="15.133333333333333" fill="#2D3949"/><g transform="translate(945.83,635.6) scale(0.3785) rotate(0)"><path fill-rule="evenodd" clip-rule="evenodd" d="M10 20C15.5228 20 20 15.5228 20 10C20 4.47715 15.5228 0 10 0C4.47715 0 0 4.47715 0 10C0 15.5228 4.47715 20 10 20ZM10 17C13.866 17 17 13.866 17 10C17 6.13401 13.866 3 10 3C6.13401 3 3 6.13401 3 10C3 13.866 6.13401 17 10 17Z" fill="#199AFC"/></g><g transform="translate(945.83,643.17) scale(0.3785) rotate(0)"><path d="M10 0L20 10L10 20L0 10L10 0Z" fill="#199AFC"/></g><rect x="1165.2666666666667" y="635.6" width="15.133333333333333" height="15.133333333333333" fill="#2D3949"/><rect x="1165.27" y="635.6" width="7.57" height="7.57" fill="#199AFC"/></g></svg>